<svg width="30" height="30" viewBox="0 0 30 30" fill="none" xmlns="http://www.w3.org/2000/svg">
<path d="M12.4641 24.9316C9.5801 24.9312 6.78545 23.9309 4.55632 22.101C2.3272 20.2711 0.801516 17.7249 0.239235 14.8962C-0.323045 12.0675 0.112865 9.13143 1.47269 6.58812C2.83252 4.04482 5.03213 2.05169 7.69674 0.948344C10.3613 -0.155005 13.3261 -0.30031 16.0858 0.537186C18.8456 1.37468 21.2295 3.14316 22.8315 5.5413C24.4335 7.93944 25.1545 10.8189 24.8715 13.689C24.5885 16.5591 23.3191 19.2422 21.2796 21.2813C20.1246 22.4425 18.7507 23.363 17.2375 23.9896C15.7243 24.6161 14.1019 24.9363 12.4641 24.9316ZM12.4641 2.89523C10.2491 2.8989 8.10395 3.67035 6.39393 5.07817C4.68391 6.48599 3.51485 8.4431 3.08587 10.6161C2.6569 12.7892 2.99454 15.0437 4.04129 16.9958C5.08804 18.9478 6.77916 20.4766 8.82657 21.3217C10.874 22.1668 13.1511 22.2759 15.2699 21.6306C17.3888 20.9852 19.2184 19.6252 20.4471 17.7823C21.6758 15.9393 22.2275 13.7274 22.0084 11.5233C21.7893 9.31918 20.8128 7.25921 19.2453 5.69427C18.3554 4.80359 17.2981 4.09774 16.1343 3.61737C14.9705 3.13699 13.7232 2.89156 12.4641 2.89523Z" fill="#273B5B"/>
<path d="M28.2052 29.6499C28.015 29.6504 27.8265 29.6132 27.6507 29.5406C27.4749 29.468 27.3152 29.3613 27.1808 29.2267L19.2454 21.2817C19.009 21.0057 18.8855 20.6506 18.8995 20.2875C18.9135 19.9244 19.0641 19.5799 19.321 19.323C19.578 19.066 19.9224 18.9155 20.2856 18.9015C20.6487 18.8874 21.0037 19.011 21.2797 19.2473L29.2248 27.1827C29.4279 27.3843 29.5666 27.6416 29.6231 27.9222C29.6796 28.2027 29.6515 28.4937 29.5422 28.7582C29.4329 29.0227 29.2474 29.2487 29.0093 29.4074C28.7713 29.5662 28.4913 29.6506 28.2052 29.6499Z" fill="#273B5B"/>
</svg>
