<svg width="15" height="16" viewBox="0 0 15 16" fill="none" xmlns="http://www.w3.org/2000/svg">
<g clip-path="url(#clip0_348_658)">
<path d="M13.0834 2.64197V3.3224C13.0459 4.15956 12.4682 4.7757 11.6957 4.82292C10.7691 4.88286 10.0981 4.27508 10.0606 3.3224C10.0606 3.09001 10.0492 2.85929 10.0492 2.62891H4.53804V3.0227C4.53735 3.21123 4.52032 3.39935 4.48714 3.58494C4.43399 3.92848 4.26021 4.24186 3.99696 4.4689C3.73372 4.69594 3.39821 4.8218 3.05059 4.82392C2.69247 4.84508 2.33916 4.73315 2.05855 4.50965C1.77794 4.28615 1.58981 3.96684 1.53032 3.61306C1.49079 3.38837 1.47006 3.16077 1.46837 2.93263V2.6346H0V15.5639H14.5481V2.64163L13.0834 2.64197ZM13.1657 14.1311H1.33945V6.80128H13.1366C13.2585 7.251 13.2846 13.3833 13.1668 14.1314L13.1657 14.1311Z" fill="#273B5B"/>
<path d="M12.6096 2.21477C12.6096 2.58982 12.6226 2.96453 12.6096 3.33991C12.5831 3.99255 12.1615 4.41615 11.5574 4.41146C11.2726 4.41147 10.9994 4.29879 10.7973 4.09802C10.5953 3.89726 10.4809 3.62472 10.4792 3.33991C10.4567 2.56973 10.4531 1.79955 10.4792 1.03137C10.5036 0.388104 10.9553 0.0167431 11.5799 0C11.72 0.00162018 11.8585 0.0313891 11.9869 0.0875395C12.1154 0.14369 12.2312 0.225077 12.3276 0.326868C12.424 0.42866 12.4989 0.548781 12.548 0.680099C12.5971 0.811418 12.6193 0.951257 12.6132 1.09131C12.5908 1.46636 12.6132 1.8414 12.6132 2.21678L12.6096 2.21477Z" fill="#273B5B"/>
<path d="M4.06577 2.20314C4.06577 2.57819 4.07514 2.9529 4.06577 3.32828C4.06951 3.46884 4.04523 3.60873 3.99436 3.73982C3.94348 3.8709 3.86702 3.99054 3.76943 4.09177C3.67185 4.19301 3.55509 4.2738 3.42596 4.32945C3.29683 4.3851 3.15792 4.41449 3.01732 4.41591C2.73592 4.40679 2.46815 4.29256 2.26682 4.09575C2.06548 3.89894 1.9452 3.63384 1.92969 3.35272C1.95782 2.58555 1.92969 1.8147 1.94275 1.0462C1.93827 0.90507 1.96359 0.764587 2.01707 0.633907C2.07054 0.503228 2.15096 0.385288 2.25308 0.28778C2.3552 0.190273 2.47673 0.115388 2.60974 0.0680093C2.74275 0.0206308 2.88425 0.00182331 3.02502 0.0128134C3.64954 0.0128134 4.043 0.417996 4.06577 1.08437C4.07883 1.45941 4.06577 1.83446 4.06577 2.20984V2.20314Z" fill="#273B5B"/>
</g>
<defs>
<clipPath id="clip0_348_658">
<rect width="14.5481" height="15.564" fill="white"/>
</clipPath>
</defs>
</svg>
