<svg width="23" height="23" viewBox="0 0 23 23" fill="none" xmlns="http://www.w3.org/2000/svg">
<path d="M22.0316 9.79329H20.5386C20.2937 8.55409 19.7994 7.37857 19.086 6.33922L20.1351 5.28269C20.3099 5.09573 20.4072 4.84865 20.4072 4.59187C20.4072 4.3351 20.3099 4.08801 20.1351 3.90106L19.086 2.84452C18.9003 2.66851 18.655 2.5705 18.4 2.5705C18.145 2.5705 17.8997 2.66851 17.714 2.84452L16.6649 3.90106C15.6219 3.21154 14.4578 2.72881 13.2351 2.4788V0.975265C13.2319 0.717591 13.1289 0.471362 12.948 0.289145C12.767 0.106928 12.5225 0.003162 12.2667 0L10.7737 0C10.5178 0.003162 10.2733 0.106928 10.0924 0.289145C9.91144 0.471362 9.8084 0.717591 9.80526 0.975265V2.43816C8.55934 2.65155 7.37489 3.13699 6.33509 3.86042L5.28597 2.80389C5.10032 2.62787 4.85497 2.52986 4.6 2.52986C4.34503 2.52986 4.09968 2.62787 3.91404 2.80389L2.86491 3.86042C2.69013 4.04738 2.59281 4.29447 2.59281 4.55124C2.59281 4.80801 2.69013 5.0551 2.86491 5.24205L3.87368 6.25795C3.15965 7.31186 2.66546 8.50076 2.42105 9.75265H0.968421C0.712555 9.75581 0.468054 9.85958 0.287116 10.0418C0.106178 10.224 0.00313981 10.4702 0 10.7279L0 12.2314C0.00313981 12.4891 0.106178 12.7354 0.287116 12.9176C0.468054 13.0998 0.712555 13.2036 0.968421 13.2067H2.3807C2.63262 14.4563 3.1262 15.6437 3.83333 16.7014L2.82456 17.7173C2.64978 17.9043 2.55246 18.1514 2.55246 18.4081C2.55246 18.6649 2.64978 18.912 2.82456 19.0989L3.87368 20.1555C4.05933 20.3315 4.30468 20.4295 4.55965 20.4295C4.81462 20.4295 5.05997 20.3315 5.24561 20.1555L6.25439 19.1396C7.31906 19.8523 8.51147 20.3492 9.76491 20.6025V22.0247C9.76805 22.2824 9.87109 22.5286 10.052 22.7109C10.233 22.8931 10.4775 22.9968 10.7333 23H12.2263C12.4822 22.9968 12.7267 22.8931 12.9076 22.7109C13.0886 22.5286 13.1916 22.2824 13.1947 22.0247V20.5618C14.4378 20.3157 15.6184 19.818 16.6649 19.0989L17.6737 20.1148C17.8593 20.2909 18.1047 20.3889 18.3596 20.3889C18.6146 20.3889 18.86 20.2909 19.0456 20.1148L20.0947 19.0583C20.2695 18.8714 20.3668 18.6243 20.3668 18.3675C20.3668 18.1107 20.2695 17.8636 20.0947 17.6767L19.0456 16.6201C19.7474 15.564 20.2279 14.3749 20.4579 13.1254L22.0316 13.2473C22.2874 13.2442 22.5319 13.1404 22.7129 12.9582C22.8938 12.776 22.9969 12.5298 23 12.2721V10.7686C22.9969 10.5109 22.8938 10.2646 22.7129 10.0824C22.5319 9.90022 22.2874 9.79645 22.0316 9.79329ZM14.9702 14.9541C14.272 15.6567 13.3826 16.1351 12.4144 16.3288C11.4463 16.5224 10.4429 16.4227 9.53103 16.0421C8.61917 15.6616 7.83983 15.0173 7.29152 14.1907C6.74322 13.3642 6.45056 12.3924 6.45056 11.3984C6.45056 10.4044 6.74322 9.43266 7.29152 8.60611C7.83983 7.77955 8.61917 7.13527 9.53103 6.7547C10.4429 6.37414 11.4463 6.27439 12.4144 6.46806C13.3826 6.66173 14.272 7.14012 14.9702 7.84276C15.9011 8.78868 16.4234 10.0666 16.4234 11.3984C16.4234 12.7302 15.9011 14.0081 14.9702 14.9541Z" fill="white"/>
</svg>
