<svg width="35" height="48" viewBox="0 0 35 48" fill="none" xmlns="http://www.w3.org/2000/svg">
<path d="M30.3731 18.0901V2.96494C30.3721 2.17892 30.0734 1.42539 29.5425 0.869582C29.0117 0.313777 28.2919 0.00106005 27.5411 0L7.46269 0C6.71191 0.00106005 5.99217 0.313777 5.46128 0.869582C4.9304 1.42539 4.63171 2.17892 4.63069 2.96494V18.0901C3.394 18.1169 2.21655 18.6499 1.35087 19.575C0.485198 20.5 0.0002371 21.7434 0 23.0384L0 43.0477C-5.08395e-08 43.6983 0.122413 44.3424 0.360248 44.9434C0.598082 45.5443 0.946677 46.0903 1.38612 46.5502C1.82556 47.0101 2.34724 47.3748 2.92135 47.6236C3.49547 47.8724 4.11077 48.0003 4.73211 48H30.2679C31.5226 48 32.7259 47.4783 33.6133 46.5496C34.5007 45.621 34.9995 44.3613 35 43.0477V23.0384C34.9993 21.7442 34.5147 20.5017 33.65 19.5769C32.7852 18.6521 31.609 18.1184 30.3731 18.0901ZM25.7386 4.85209V18.0841H9.25947V4.8621L25.7386 4.85209ZM19.4738 35.3028V41.0444C19.4738 41.5927 19.2657 42.1186 18.8954 42.5063C18.5251 42.894 18.0228 43.1119 17.499 43.1119C16.9753 43.1119 16.473 42.894 16.1027 42.5063C15.7324 42.1186 15.5243 41.5927 15.5243 41.0444V35.2948C14.5697 34.8248 13.7966 34.0283 13.3323 33.0366C12.8681 32.0449 12.7404 30.9172 12.9704 29.8394C13.2004 28.7616 13.7743 27.7979 14.5975 27.1074C15.4208 26.4168 16.4442 26.0405 17.499 26.0405C18.5539 26.0405 19.5773 26.4168 20.4005 27.1074C21.2238 27.7979 21.7977 28.7616 22.0277 29.8394C22.2577 30.9172 22.13 32.0449 21.6658 33.0366C21.2015 34.0283 20.4284 34.8248 19.4738 35.2948V35.3028Z" fill="white"/>
</svg>
