<svg width="43" height="26" viewBox="0 0 43 26" fill="none" xmlns="http://www.w3.org/2000/svg">
<path d="M2.99956 4.60811e-06C2.69237 -0.000539207 2.38698 0.047053 2.09452 0.14105L20.0919 17.3956C20.2773 17.5848 20.4986 17.7351 20.7428 17.8377C20.987 17.9403 21.2492 17.9932 21.5141 17.9932C21.779 17.9932 22.0412 17.9403 22.2854 17.8377C22.5296 17.7351 22.7509 17.5848 22.9363 17.3956L40.9031 0.14105C40.6107 0.047053 40.3053 -0.000539207 39.9981 4.60811e-06H2.99956ZM0.484256 1.3752C0.168672 1.85821 0.000416998 2.4226 2.13264e-07 2.99957V22.9998C-0.000215322 23.5697 0.162946 24.1277 0.470151 24.6077L12.3438 12.734L0.484256 1.3752ZM42.5134 1.3752L30.6703 12.7481L42.5298 24.6077C42.836 24.1272 42.999 23.5695 43 22.9998V2.99957C42.9989 2.42236 42.8298 1.85795 42.5134 1.3752ZM13.7801 14.1233L2.06161 25.8418C2.36472 25.9438 2.68212 25.997 3.00191 25.9993H39.9981C40.3179 25.997 40.6353 25.9438 40.9384 25.8418L29.2175 14.1233L24.3115 18.8437C23.5582 19.5638 22.5562 19.9658 21.5141 19.9658C20.472 19.9658 19.47 19.5638 18.7167 18.8437L13.7801 14.1233Z" fill="white"/>
</svg>
