<svg width="20" height="22" viewBox="0 0 20 22" fill="none" xmlns="http://www.w3.org/2000/svg">
<path d="M9.94909 16.7367C9.95192 15.5521 10.3416 14.4009 11.0588 13.4581C11.776 12.5154 12.7815 11.8326 13.9223 11.5138C13.1702 10.7588 12.2776 10.1583 11.2949 9.74616C11.9935 9.26163 12.5663 8.61732 12.9657 7.8668C13.3651 7.11628 13.5796 6.28125 13.5912 5.43115C13.5912 3.99072 13.019 2.60928 12.0005 1.59075C10.9819 0.572208 9.6005 0 8.16007 0C6.71964 0 5.33821 0.572208 4.31967 1.59075C3.30113 2.60928 2.72892 3.99072 2.72892 5.43115C2.74058 6.28125 2.95503 7.11628 3.35444 7.8668C3.75385 8.61732 4.32668 9.26163 5.02528 9.74616C3.53748 10.3645 2.26617 11.4096 1.37181 12.7497C0.477436 14.0899 8.71764e-05 15.6649 0 17.2761L0 18.5364C0 19.1752 0.253752 19.7878 0.705434 20.2395C1.15712 20.6911 1.76973 20.9449 2.4085 20.9449H11.9517C11.3265 20.436 10.8225 19.7944 10.4761 19.0665C10.1297 18.3386 9.94968 17.5428 9.94909 16.7367Z" fill="#273B5B"/>
<path d="M15.3801 12.1172C14.4649 12.1161 13.5701 12.3866 12.8087 12.8944C12.0474 13.4021 11.4538 14.1244 11.1031 14.9697C10.7524 15.8149 10.6603 16.7453 10.8386 17.6429C11.0169 18.5405 11.4575 19.365 12.1046 20.0121C12.7517 20.6592 13.5762 21.0998 14.4738 21.2781C15.3714 21.4564 16.3018 21.3643 17.147 21.0136C17.9923 20.6629 18.7145 20.0693 19.2223 19.308C19.7301 18.5466 20.0006 17.6517 19.9995 16.7366C19.9981 15.5119 19.5109 14.3377 18.6449 13.4717C17.7789 12.6057 16.6048 12.1186 15.3801 12.1172ZM17.089 17.6231H16.2345V18.4829C16.2175 18.6985 16.1198 18.8998 15.961 19.0466C15.8021 19.1935 15.5937 19.275 15.3774 19.275C15.1611 19.275 14.9527 19.1935 14.7939 19.0466C14.635 18.8998 14.5373 18.6985 14.5203 18.4829V17.6231H13.6605C13.4449 17.6061 13.2436 17.5084 13.0968 17.3495C12.9499 17.1906 12.8684 16.9823 12.8684 16.766C12.8684 16.5497 12.9499 16.3413 13.0968 16.1824C13.2436 16.0236 13.4449 15.9259 13.6605 15.9088H14.5203V15.0223C14.511 14.9041 14.5262 14.7852 14.565 14.6731C14.6039 14.561 14.6655 14.4582 14.746 14.3711C14.8265 14.284 14.9241 14.2145 15.0328 14.1669C15.1415 14.1194 15.2588 14.0948 15.3774 14.0948C15.496 14.0948 15.6134 14.1194 15.722 14.1669C15.8307 14.2145 15.9284 14.284 16.0089 14.3711C16.0894 14.4582 16.151 14.561 16.1898 14.6731C16.2287 14.7852 16.2439 14.9041 16.2345 15.0223V15.8821H17.089C17.3199 15.8821 17.5413 15.9739 17.7045 16.1371C17.8678 16.3003 17.9595 16.5218 17.9595 16.7526C17.9595 16.9835 17.8678 17.2049 17.7045 17.3681C17.5413 17.5314 17.3199 17.6231 17.089 17.6231Z" fill="#273B5B"/>
</svg>
