<svg width="26" height="20" viewBox="0 0 26 20" fill="none" xmlns="http://www.w3.org/2000/svg">
<path d="M17.2216 0C14.1426 0 11.6445 2.49805 11.6445 5.57704C11.6445 8.65603 14.1135 11.1831 17.2216 11.1831C20.3296 11.1831 22.7986 8.68507 22.7986 5.60608C22.7986 2.52709 20.3006 0 17.2216 0ZM17.2216 2.58519C18.0349 2.58519 18.703 3.25327 18.703 4.06659C18.703 4.87991 18.0349 5.54799 17.2216 5.54799C16.4083 5.54799 15.7402 4.87991 15.7402 4.06659C15.7111 3.28232 16.3792 2.58519 17.2216 2.58519ZM19.6034 8.30746H14.8107C14.6654 8.30746 14.5492 8.19127 14.5492 8.04604C14.5492 7.05844 15.1011 6.18703 15.9435 5.72227C16.2921 6.01274 16.7278 6.15798 17.2216 6.15798C17.6863 6.15798 18.1511 5.9837 18.4996 5.72227C19.342 6.18703 19.8939 7.05844 19.8939 8.04604C19.8649 8.19127 19.7487 8.30746 19.6034 8.30746Z" fill="white"/>
<path d="M2.84661 8.91602H1.10379C0.4938 8.91602 0 9.40982 0 10.0198V17.0782C0 17.6882 0.4938 18.182 1.10379 18.182H2.84661V8.91602Z" fill="white"/>
<path d="M4.79208 8.91602H4.00781V18.153H4.79208C5.40207 18.153 5.89587 17.6592 5.89587 17.0492V9.99076C5.89587 9.40981 5.40207 8.91602 4.79208 8.91602Z" fill="white"/>
<path d="M25.6526 11.4441C25.3331 11.0374 23.5612 11.2698 22.8351 11.6184C22.3122 11.8798 21.8475 12.1412 21.3827 12.4026C19.8432 13.245 18.478 14.0002 16.5028 14.3197C16.7352 14.9588 16.9675 15.9173 16.038 16.6145C15.6023 16.934 15.1085 17.0502 14.7019 17.0502C13.8886 17.0502 13.2495 16.6726 13.2205 16.6435C13.1914 16.6145 13.1624 16.6145 13.1333 16.5854L10.6353 14.2907C10.4029 14.0583 10.3739 13.7098 10.6062 13.4774C10.8386 13.245 11.1872 13.216 11.4196 13.4483L13.8595 15.714C14.0338 15.8011 14.76 16.1497 15.3409 15.714C15.6314 15.5107 15.6023 15.2202 15.2828 14.494C15.2247 14.3197 15.1376 14.2036 15.1085 14.0583C14.789 13.6226 12.93 11.7927 11.1872 10.166H7.0625V16.7016H8.07915C8.16629 16.7016 8.25343 16.7307 8.34057 16.7597L13.2205 19.0835C13.2786 19.1125 13.3367 19.1706 13.3948 19.1997C13.3948 19.1997 14.0628 19.6935 15.8347 18.5897C17.9552 17.2535 24.8393 13.1288 25.7398 12.606C25.8269 12.4026 26.0302 11.9379 25.6526 11.4441Z" fill="white"/>
</svg>
