<svg width="267" height="54" viewBox="0 0 267 54" fill="none" xmlns="http://www.w3.org/2000/svg">
<path d="M245.301 25.2267H241.101V21.0129C241.101 20.8029 241.06 20.595 240.979 20.401C240.899 20.2071 240.781 20.0308 240.633 19.8823C240.484 19.7339 240.308 19.6161 240.114 19.5358C239.92 19.4554 239.712 19.4141 239.502 19.4141C239.292 19.4141 239.084 19.4554 238.89 19.5358C238.696 19.6161 238.52 19.7339 238.372 19.8823C238.223 20.0308 238.106 20.2071 238.025 20.401C237.945 20.595 237.903 20.8029 237.903 21.0129V25.2267H233.69C233.266 25.2267 232.859 25.3951 232.559 25.695C232.259 25.9948 232.091 26.4015 232.091 26.8255C232.091 27.2495 232.259 27.6562 232.559 27.956C232.859 28.2559 233.266 28.4243 233.69 28.4243H237.903V32.6246C237.903 33.0486 238.072 33.4553 238.372 33.7551C238.672 34.055 239.078 34.2234 239.502 34.2234C239.926 34.2234 240.333 34.055 240.633 33.7551C240.933 33.4553 241.101 33.0486 241.101 32.6246V28.4514H245.301C245.725 28.4514 246.132 28.283 246.432 27.9831C246.732 27.6833 246.9 27.2766 246.9 26.8526C246.9 26.4286 246.732 26.0219 246.432 25.7221C246.132 25.4222 245.725 25.2538 245.301 25.2538V25.2267Z" fill="white"/>
<path d="M224.273 47.668C223.407 47.6755 222.57 47.3561 221.929 46.7737C218.474 43.6767 215.881 39.7373 214.402 35.3396C212.922 30.9419 212.608 26.236 213.488 21.6805C213.668 20.766 214.203 19.9603 214.977 19.4406C215.751 18.921 216.699 18.73 217.614 18.9097C218.528 19.0894 219.334 19.625 219.854 20.3987C220.373 21.1724 220.564 22.1209 220.385 23.0354C219.73 26.4023 219.96 29.8813 221.053 33.1326C222.145 36.3838 224.062 39.296 226.617 41.5844C227.152 42.0574 227.53 42.6823 227.7 43.3757C227.871 44.0691 227.825 44.7979 227.571 45.465C227.316 46.132 226.864 46.7054 226.275 47.1087C225.686 47.5121 224.987 47.7261 224.273 47.7222V47.668Z" fill="white"/>
<path d="M239.814 53.6003C237.891 53.6 235.974 53.391 234.096 52.9771C233.18 52.7794 232.379 52.2259 231.871 51.4382C231.363 50.6505 231.189 49.6931 231.386 48.7768C231.584 47.8605 232.137 47.0602 232.925 46.552C233.713 46.0438 234.67 45.8693 235.587 46.0669C238.538 46.716 241.599 46.6793 244.534 45.9596C247.469 45.2399 250.2 43.8565 252.516 41.9157C254.833 39.975 256.673 37.5287 257.896 34.765C259.118 32.0014 259.69 28.9941 259.568 25.9746C259.446 22.9551 258.633 20.0039 257.191 17.3481C255.749 14.6922 253.717 12.4025 251.252 10.6552C248.786 8.90795 245.952 7.74962 242.969 7.26938C239.985 6.78914 236.931 6.99979 234.042 7.88513C233.144 8.15465 232.175 8.05624 231.349 7.61157C230.523 7.1669 229.908 6.41239 229.638 5.51401C229.369 4.61564 229.467 3.647 229.912 2.82118C230.357 1.99537 231.111 1.38002 232.01 1.1105C235.689 0.0170457 239.56 -0.273336 243.361 0.25901C247.163 0.791355 250.805 2.13401 254.043 4.19611C257.28 6.25822 260.037 8.99166 262.126 12.2115C264.215 15.4313 265.589 19.0624 266.153 22.859C266.718 26.6556 266.46 30.5292 265.398 34.2176C264.336 37.906 262.494 41.3232 259.996 44.238C257.499 47.1528 254.404 49.4971 250.922 51.1123C247.44 52.7276 243.652 53.5761 239.814 53.6003Z" fill="white"/>
<path d="M224.395 7.17506C225.218 7.5798 225.901 8.2192 226.36 9.01243C226.819 9.80565 227.032 10.7171 226.973 11.6315C226.914 12.546 226.585 13.4223 226.028 14.1498C225.47 14.8773 224.71 15.4233 223.843 15.7188C222.975 16.0142 222.04 16.0459 221.154 15.8097C220.269 15.5735 219.474 15.0802 218.869 14.392C218.263 13.7038 217.876 12.8516 217.755 11.9433C217.634 11.0349 217.786 10.1112 218.19 9.28875C218.735 8.18779 219.694 7.3474 220.856 6.95132C222.019 6.55523 223.292 6.63568 224.395 7.17506Z" fill="white"/>
<path d="M5.49805 18H2.5293L2.54883 16.4668H5.49805C6.51367 16.4668 7.36003 16.2552 8.03711 15.832C8.71419 15.4023 9.22201 14.8034 9.56055 14.0352C9.9056 13.2604 10.0781 12.3555 10.0781 11.3203V10.4512C10.0781 9.63737 9.98047 8.91471 9.78516 8.2832C9.58984 7.64518 9.30339 7.10807 8.92578 6.67188C8.54818 6.22917 8.08594 5.89388 7.53906 5.66602C6.9987 5.43815 6.37695 5.32422 5.67383 5.32422H2.4707V3.78125H5.67383C6.60482 3.78125 7.45443 3.9375 8.22266 4.25C8.99089 4.55599 9.65169 5.00195 10.2051 5.58789C10.765 6.16732 11.1947 6.87044 11.4941 7.69727C11.7936 8.51758 11.9434 9.44206 11.9434 10.4707V11.3203C11.9434 12.349 11.7936 13.2767 11.4941 14.1035C11.1947 14.9238 10.7617 15.6237 10.1953 16.2031C9.63542 16.7826 8.95833 17.2285 8.16406 17.541C7.3763 17.847 6.48763 18 5.49805 18ZM3.53516 3.78125V18H1.65039V3.78125H3.53516ZM23.8086 16.4668V18H16.2793V16.4668H23.8086ZM16.6602 3.78125V18H14.7754V3.78125H16.6602ZM22.8125 9.89453V11.4277H16.2793V9.89453H22.8125ZM23.7109 3.78125V5.32422H16.2793V3.78125H23.7109ZM33.7207 14.4062C33.7207 14.0742 33.6686 13.7812 33.5645 13.5273C33.4668 13.2669 33.291 13.0326 33.0371 12.8242C32.7897 12.6159 32.4447 12.4173 32.002 12.2285C31.5658 12.0397 31.0124 11.8477 30.3418 11.6523C29.6387 11.444 29.0039 11.2129 28.4375 10.959C27.8711 10.6986 27.3861 10.4023 26.9824 10.0703C26.5788 9.73828 26.2695 9.35742 26.0547 8.92773C25.8398 8.49805 25.7324 8.00651 25.7324 7.45312C25.7324 6.89974 25.8464 6.38867 26.0742 5.91992C26.3021 5.45117 26.6276 5.04427 27.0508 4.69922C27.4805 4.34766 27.9915 4.07422 28.584 3.87891C29.1764 3.68359 29.8372 3.58594 30.5664 3.58594C31.6341 3.58594 32.5391 3.79102 33.2812 4.20117C34.0299 4.60482 34.5996 5.13542 34.9902 5.79297C35.3809 6.44401 35.5762 7.14062 35.5762 7.88281H33.7012C33.7012 7.34896 33.5872 6.87695 33.3594 6.4668C33.1315 6.05013 32.7865 5.72461 32.3242 5.49023C31.862 5.24935 31.276 5.12891 30.5664 5.12891C29.8958 5.12891 29.3424 5.22982 28.9062 5.43164C28.4701 5.63346 28.1445 5.9069 27.9297 6.25195C27.7214 6.59701 27.6172 6.99089 27.6172 7.43359C27.6172 7.73307 27.679 8.00651 27.8027 8.25391C27.9329 8.49479 28.1315 8.7194 28.3984 8.92773C28.6719 9.13607 29.0169 9.32812 29.4336 9.50391C29.8568 9.67969 30.3613 9.84896 30.9473 10.0117C31.7546 10.2396 32.4512 10.4935 33.0371 10.7734C33.623 11.0534 34.1048 11.3691 34.4824 11.7207C34.8665 12.0658 35.1497 12.4596 35.332 12.9023C35.5208 13.3385 35.6152 13.8333 35.6152 14.3867C35.6152 14.9661 35.498 15.4902 35.2637 15.959C35.0293 16.4277 34.694 16.8281 34.2578 17.1602C33.8216 17.4922 33.2975 17.7493 32.6855 17.9316C32.0801 18.1074 31.403 18.1953 30.6543 18.1953C29.9967 18.1953 29.349 18.1042 28.7109 17.9219C28.0794 17.7396 27.5033 17.4661 26.9824 17.1016C26.4681 16.737 26.0547 16.2878 25.7422 15.7539C25.4362 15.2135 25.2832 14.5885 25.2832 13.8789H27.1582C27.1582 14.3672 27.2526 14.7871 27.4414 15.1387C27.6302 15.4837 27.8874 15.7702 28.2129 15.998C28.5449 16.2259 28.9193 16.3952 29.3359 16.5059C29.7591 16.61 30.1986 16.6621 30.6543 16.6621C31.3118 16.6621 31.8685 16.571 32.3242 16.3887C32.7799 16.2064 33.125 15.946 33.3594 15.6074C33.6003 15.2689 33.7207 14.8685 33.7207 14.4062ZM43.2812 5.04102L38.5742 18H36.6504L42.0703 3.78125H43.3105L43.2812 5.04102ZM47.2266 18L42.5098 5.04102L42.4805 3.78125H43.7207L49.1602 18H47.2266ZM46.9824 12.7363V14.2793H38.9941V12.7363H46.9824ZM51.0645 3.78125H55.7715C56.8392 3.78125 57.7409 3.94401 58.4766 4.26953C59.2188 4.59505 59.7819 5.07682 60.166 5.71484C60.5566 6.34635 60.752 7.12435 60.752 8.04883C60.752 8.69987 60.6185 9.29557 60.3516 9.83594C60.0911 10.3698 59.7135 10.8255 59.2188 11.2031C58.7305 11.5742 58.1445 11.8509 57.4609 12.0332L56.9336 12.2383H52.5098L52.4902 10.7051H55.8301C56.5072 10.7051 57.0703 10.5879 57.5195 10.3535C57.9688 10.1126 58.3073 9.79036 58.5352 9.38672C58.763 8.98307 58.877 8.53711 58.877 8.04883C58.877 7.50195 58.7695 7.02344 58.5547 6.61328C58.3398 6.20312 58.0013 5.88737 57.5391 5.66602C57.0833 5.43815 56.4941 5.32422 55.7715 5.32422H52.9492V18H51.0645V3.78125ZM59.375 18L55.918 11.5547L57.8809 11.5449L61.3867 17.8828V18H59.375ZM63.3887 3.78125H68.0957C69.1634 3.78125 70.0651 3.94401 70.8008 4.26953C71.543 4.59505 72.1061 5.07682 72.4902 5.71484C72.8809 6.34635 73.0762 7.12435 73.0762 8.04883C73.0762 8.69987 72.9427 9.29557 72.6758 9.83594C72.4154 10.3698 72.0378 10.8255 71.543 11.2031C71.0547 11.5742 70.4688 11.8509 69.7852 12.0332L69.2578 12.2383H64.834L64.8145 10.7051H68.1543C68.8314 10.7051 69.3945 10.5879 69.8438 10.3535C70.293 10.1126 70.6315 9.79036 70.8594 9.38672C71.0872 8.98307 71.2012 8.53711 71.2012 8.04883C71.2012 7.50195 71.0938 7.02344 70.8789 6.61328C70.6641 6.20312 70.3255 5.88737 69.8633 5.66602C69.4076 5.43815 68.8184 5.32422 68.0957 5.32422H65.2734V18H63.3887V3.78125ZM71.6992 18L68.2422 11.5547L70.2051 11.5449L73.7109 17.8828V18H71.6992ZM86.6602 10.4414V11.3398C86.6602 12.4076 86.5267 13.3646 86.2598 14.2109C85.9928 15.0573 85.6087 15.7767 85.1074 16.3691C84.6061 16.9616 84.0039 17.4141 83.3008 17.7266C82.6042 18.0391 81.8229 18.1953 80.957 18.1953C80.1172 18.1953 79.3457 18.0391 78.6426 17.7266C77.946 17.4141 77.3405 16.9616 76.8262 16.3691C76.3184 15.7767 75.9245 15.0573 75.6445 14.2109C75.3646 13.3646 75.2246 12.4076 75.2246 11.3398V10.4414C75.2246 9.3737 75.3613 8.41992 75.6348 7.58008C75.9147 6.73372 76.3086 6.01432 76.8164 5.42188C77.3242 4.82292 77.9264 4.36719 78.623 4.05469C79.3262 3.74219 80.0977 3.58594 80.9375 3.58594C81.8034 3.58594 82.5846 3.74219 83.2812 4.05469C83.9844 4.36719 84.5866 4.82292 85.0879 5.42188C85.5957 6.01432 85.9831 6.73372 86.25 7.58008C86.5234 8.41992 86.6602 9.3737 86.6602 10.4414ZM84.7949 11.3398V10.4219C84.7949 9.57552 84.707 8.82682 84.5312 8.17578C84.362 7.52474 84.1113 6.97786 83.7793 6.53516C83.4473 6.09245 83.0404 5.75716 82.5586 5.5293C82.0833 5.30143 81.543 5.1875 80.9375 5.1875C80.3516 5.1875 79.821 5.30143 79.3457 5.5293C78.877 5.75716 78.4733 6.09245 78.1348 6.53516C77.8027 6.97786 77.5456 7.52474 77.3633 8.17578C77.181 8.82682 77.0898 9.57552 77.0898 10.4219V11.3398C77.0898 12.1927 77.181 12.9479 77.3633 13.6055C77.5456 14.2565 77.806 14.8066 78.1445 15.2559C78.4896 15.6986 78.8965 16.0339 79.3652 16.2617C79.8405 16.4896 80.3711 16.6035 80.957 16.6035C81.569 16.6035 82.1126 16.4896 82.5879 16.2617C83.0632 16.0339 83.4635 15.6986 83.7891 15.2559C84.1211 14.8066 84.3717 14.2565 84.541 13.6055C84.7103 12.9479 84.7949 12.1927 84.7949 11.3398ZM98.1055 16.4668V18H90.9961V16.4668H98.1055ZM91.3672 3.78125V18H89.4824V3.78125H91.3672ZM108.887 16.4668V18H101.777V16.4668H108.887ZM102.148 3.78125V18H100.264V3.78125H102.148ZM116.504 5.04102L111.797 18H109.873L115.293 3.78125H116.533L116.504 5.04102ZM120.449 18L115.732 5.04102L115.703 3.78125H116.943L122.383 18H120.449ZM120.205 12.7363V14.2793H112.217V12.7363H120.205ZM128.135 18H125.166L125.186 16.4668H128.135C129.15 16.4668 129.997 16.2552 130.674 15.832C131.351 15.4023 131.859 14.8034 132.197 14.0352C132.542 13.2604 132.715 12.3555 132.715 11.3203V10.4512C132.715 9.63737 132.617 8.91471 132.422 8.2832C132.227 7.64518 131.94 7.10807 131.562 6.67188C131.185 6.22917 130.723 5.89388 130.176 5.66602C129.635 5.43815 129.014 5.32422 128.311 5.32422H125.107V3.78125H128.311C129.242 3.78125 130.091 3.9375 130.859 4.25C131.628 4.55599 132.288 5.00195 132.842 5.58789C133.402 6.16732 133.831 6.87044 134.131 7.69727C134.43 8.51758 134.58 9.44206 134.58 10.4707V11.3203C134.58 12.349 134.43 13.2767 134.131 14.1035C133.831 14.9238 133.398 15.6237 132.832 16.2031C132.272 16.7826 131.595 17.2285 130.801 17.541C130.013 17.847 129.124 18 128.135 18ZM126.172 3.78125V18H124.287V3.78125H126.172ZM148.359 10.4414V11.3398C148.359 12.4076 148.226 13.3646 147.959 14.2109C147.692 15.0573 147.308 15.7767 146.807 16.3691C146.305 16.9616 145.703 17.4141 145 17.7266C144.303 18.0391 143.522 18.1953 142.656 18.1953C141.816 18.1953 141.045 18.0391 140.342 17.7266C139.645 17.4141 139.04 16.9616 138.525 16.3691C138.018 15.7767 137.624 15.0573 137.344 14.2109C137.064 13.3646 136.924 12.4076 136.924 11.3398V10.4414C136.924 9.3737 137.061 8.41992 137.334 7.58008C137.614 6.73372 138.008 6.01432 138.516 5.42188C139.023 4.82292 139.626 4.36719 140.322 4.05469C141.025 3.74219 141.797 3.58594 142.637 3.58594C143.503 3.58594 144.284 3.74219 144.98 4.05469C145.684 4.36719 146.286 4.82292 146.787 5.42188C147.295 6.01432 147.682 6.73372 147.949 7.58008C148.223 8.41992 148.359 9.3737 148.359 10.4414ZM146.494 11.3398V10.4219C146.494 9.57552 146.406 8.82682 146.23 8.17578C146.061 7.52474 145.811 6.97786 145.479 6.53516C145.146 6.09245 144.74 5.75716 144.258 5.5293C143.783 5.30143 143.242 5.1875 142.637 5.1875C142.051 5.1875 141.52 5.30143 141.045 5.5293C140.576 5.75716 140.173 6.09245 139.834 6.53516C139.502 6.97786 139.245 7.52474 139.062 8.17578C138.88 8.82682 138.789 9.57552 138.789 10.4219V11.3398C138.789 12.1927 138.88 12.9479 139.062 13.6055C139.245 14.2565 139.505 14.8066 139.844 15.2559C140.189 15.6986 140.596 16.0339 141.064 16.2617C141.54 16.4896 142.07 16.6035 142.656 16.6035C143.268 16.6035 143.812 16.4896 144.287 16.2617C144.762 16.0339 145.163 15.6986 145.488 15.2559C145.82 14.8066 146.071 14.2565 146.24 13.6055C146.41 12.9479 146.494 12.1927 146.494 11.3398ZM161.387 12.4238H157.588V10.8906H161.387C162.122 10.8906 162.718 10.7734 163.174 10.5391C163.63 10.3047 163.962 9.97917 164.17 9.5625C164.385 9.14583 164.492 8.67057 164.492 8.13672C164.492 7.64844 164.385 7.18945 164.17 6.75977C163.962 6.33008 163.63 5.98503 163.174 5.72461C162.718 5.45768 162.122 5.32422 161.387 5.32422H158.027V18H156.143V3.78125H161.387C162.461 3.78125 163.369 3.9668 164.111 4.33789C164.854 4.70898 165.417 5.22331 165.801 5.88086C166.185 6.5319 166.377 7.27734 166.377 8.11719C166.377 9.02865 166.185 9.80664 165.801 10.4512C165.417 11.0957 164.854 11.5872 164.111 11.9258C163.369 12.2578 162.461 12.4238 161.387 12.4238ZM179.707 10.4414V11.3398C179.707 12.4076 179.574 13.3646 179.307 14.2109C179.04 15.0573 178.656 15.7767 178.154 16.3691C177.653 16.9616 177.051 17.4141 176.348 17.7266C175.651 18.0391 174.87 18.1953 174.004 18.1953C173.164 18.1953 172.393 18.0391 171.689 17.7266C170.993 17.4141 170.387 16.9616 169.873 16.3691C169.365 15.7767 168.971 15.0573 168.691 14.2109C168.411 13.3646 168.271 12.4076 168.271 11.3398V10.4414C168.271 9.3737 168.408 8.41992 168.682 7.58008C168.962 6.73372 169.355 6.01432 169.863 5.42188C170.371 4.82292 170.973 4.36719 171.67 4.05469C172.373 3.74219 173.145 3.58594 173.984 3.58594C174.85 3.58594 175.632 3.74219 176.328 4.05469C177.031 4.36719 177.633 4.82292 178.135 5.42188C178.643 6.01432 179.03 6.73372 179.297 7.58008C179.57 8.41992 179.707 9.3737 179.707 10.4414ZM177.842 11.3398V10.4219C177.842 9.57552 177.754 8.82682 177.578 8.17578C177.409 7.52474 177.158 6.97786 176.826 6.53516C176.494 6.09245 176.087 5.75716 175.605 5.5293C175.13 5.30143 174.59 5.1875 173.984 5.1875C173.398 5.1875 172.868 5.30143 172.393 5.5293C171.924 5.75716 171.52 6.09245 171.182 6.53516C170.85 6.97786 170.592 7.52474 170.41 8.17578C170.228 8.82682 170.137 9.57552 170.137 10.4219V11.3398C170.137 12.1927 170.228 12.9479 170.41 13.6055C170.592 14.2565 170.853 14.8066 171.191 15.2559C171.536 15.6986 171.943 16.0339 172.412 16.2617C172.887 16.4896 173.418 16.6035 174.004 16.6035C174.616 16.6035 175.16 16.4896 175.635 16.2617C176.11 16.0339 176.51 15.6986 176.836 15.2559C177.168 14.8066 177.419 14.2565 177.588 13.6055C177.757 12.9479 177.842 12.1927 177.842 11.3398ZM182.529 3.78125H187.236C188.304 3.78125 189.206 3.94401 189.941 4.26953C190.684 4.59505 191.247 5.07682 191.631 5.71484C192.021 6.34635 192.217 7.12435 192.217 8.04883C192.217 8.69987 192.083 9.29557 191.816 9.83594C191.556 10.3698 191.178 10.8255 190.684 11.2031C190.195 11.5742 189.609 11.8509 188.926 12.0332L188.398 12.2383H183.975L183.955 10.7051H187.295C187.972 10.7051 188.535 10.5879 188.984 10.3535C189.434 10.1126 189.772 9.79036 190 9.38672C190.228 8.98307 190.342 8.53711 190.342 8.04883C190.342 7.50195 190.234 7.02344 190.02 6.61328C189.805 6.20312 189.466 5.88737 189.004 5.66602C188.548 5.43815 187.959 5.32422 187.236 5.32422H184.414V18H182.529V3.78125ZM190.84 18L187.383 11.5547L189.346 11.5449L192.852 17.8828V18H190.84ZM194.502 17.043C194.502 16.737 194.596 16.4798 194.785 16.2715C194.98 16.0566 195.26 15.9492 195.625 15.9492C195.99 15.9492 196.266 16.0566 196.455 16.2715C196.65 16.4798 196.748 16.737 196.748 17.043C196.748 17.3424 196.65 17.5964 196.455 17.8047C196.266 18.013 195.99 18.1172 195.625 18.1172C195.26 18.1172 194.98 18.013 194.785 17.8047C194.596 17.5964 194.502 17.3424 194.502 17.043ZM194.512 8.41992C194.512 8.11393 194.606 7.85677 194.795 7.64844C194.99 7.43359 195.27 7.32617 195.635 7.32617C195.999 7.32617 196.276 7.43359 196.465 7.64844C196.66 7.85677 196.758 8.11393 196.758 8.41992C196.758 8.7194 196.66 8.97331 196.465 9.18164C196.276 9.38997 195.999 9.49414 195.635 9.49414C195.27 9.49414 194.99 9.38997 194.795 9.18164C194.606 8.97331 194.512 8.7194 194.512 8.41992Z" fill="white"/>
</svg>
