<svg width="29" height="29" viewBox="0 0 29 29" fill="none" xmlns="http://www.w3.org/2000/svg">
<path d="M24 28.0058H4C2.93913 28.0058 1.92172 27.5844 1.17157 26.8342C0.421427 26.0841 0 25.0667 0 24.0058V4.0058C0 2.94493 0.421427 1.92752 1.17157 1.17737C1.92172 0.427226 2.93913 0.00579832 4 0.00579832H16C16.2652 0.00579832 16.5196 0.111155 16.7071 0.298692C16.8946 0.486228 17 0.740582 17 1.0058C17 1.27101 16.8946 1.52537 16.7071 1.71291C16.5196 1.90044 16.2652 2.0058 16 2.0058H4C3.46957 2.0058 2.96086 2.21651 2.58579 2.59158C2.21071 2.96666 2 3.47537 2 4.0058V24.0058C2 24.5362 2.21071 25.0449 2.58579 25.42C2.96086 25.7951 3.46957 26.0058 4 26.0058H24C24.5304 26.0058 25.0391 25.7951 25.4142 25.42C25.7893 25.0449 26 24.5362 26 24.0058V12.0058C26 11.7406 26.1054 11.4862 26.2929 11.2987C26.4804 11.1112 26.7348 11.0058 27 11.0058C27.2652 11.0058 27.5196 11.1112 27.7071 11.2987C27.8946 11.4862 28 11.7406 28 12.0058V24.0058C28 25.0667 27.5786 26.0841 26.8284 26.8342C26.0783 27.5844 25.0609 28.0058 24 28.0058ZM27.71 5.2958L22.71 0.295798C22.617 0.20207 22.5064 0.127676 22.3846 0.0769069C22.2627 0.0261382 22.132 0 22 0C21.868 0 21.7373 0.0261382 21.6154 0.0769069C21.4936 0.127676 21.383 0.20207 21.29 0.295798L6.29 15.2958C6.19732 15.3892 6.12399 15.5001 6.07423 15.6219C6.02446 15.7437 5.99924 15.8742 6 16.0058V21.0058C6 21.271 6.10536 21.5254 6.29289 21.7129C6.48043 21.9004 6.73478 22.0058 7 22.0058H12C12.1316 22.0066 12.2621 21.9813 12.3839 21.9316C12.5057 21.8818 12.6166 21.8085 12.71 21.7158L27.71 6.7158C27.8037 6.62284 27.8781 6.51223 27.9289 6.39038C27.9797 6.26852 28.0058 6.13781 28.0058 6.0058C28.0058 5.87379 27.9797 5.74308 27.9289 5.62122C27.8781 5.49936 27.8037 5.38876 27.71 5.2958Z" fill="#273B5B"/>
</svg>
