<svg width="179" height="179" viewBox="0 0 179 179" fill="none" xmlns="http://www.w3.org/2000/svg">
<circle cx="89.5" cy="89.5" r="89.5" fill="#DFDFDF"/>
<path d="M126.561 57.6312H107.143V53.3477C107.084 52.587 106.878 51.8455 106.536 51.1657C106.193 50.4859 105.722 49.8812 105.149 49.3862C104.576 48.8911 103.912 48.5156 103.196 48.281C102.479 48.0463 101.724 47.9573 100.973 48.019H79.0267C77.5275 47.9227 76.051 48.4275 74.9158 49.4244C73.7806 50.4213 73.0776 51.8304 72.9585 53.3477V57.6312H53.419C52.9678 57.6229 52.5196 57.7068 52.1011 57.8779C51.6827 58.049 51.3025 58.3038 50.9835 58.6272C50.6644 58.9505 50.4129 59.3356 50.244 59.7596C50.0751 60.1836 49.9923 60.6378 50.0006 61.0949C49.9924 61.553 50.0751 62.0081 50.2437 62.4332C50.4124 62.8583 50.6636 63.2448 50.9824 63.5697C51.3011 63.8947 51.6811 64.1514 52.0996 64.3248C52.5182 64.4982 52.9668 64.5847 53.419 64.5791H57.6667L61.8942 118.543C61.9262 121.593 63.1443 124.507 65.2841 126.652C67.4239 128.797 70.3125 130 73.3226 130H106.637C109.645 129.995 112.531 128.79 114.67 126.646C116.808 124.502 118.028 121.591 118.065 118.543L122.333 64.7021H126.561C127.015 64.7104 127.465 64.626 127.886 64.4539C128.307 64.2817 128.69 64.0254 129.011 63.7002C129.332 63.375 129.585 62.9875 129.754 62.5611C129.924 62.1346 130.008 61.6778 129.999 61.2179C130.007 60.7533 129.925 60.2916 129.756 59.8594C129.587 59.4273 129.336 59.0332 129.016 58.6999C128.697 58.3666 128.315 58.1005 127.894 57.9171C127.472 57.7337 127.019 57.6366 126.561 57.6312ZM79.7144 54.9669H100.286V57.6312H79.7144V54.9669ZM81.0899 111.349H80.9685C80.087 111.335 79.2438 110.982 78.6092 110.362C77.9747 109.742 77.5961 108.901 77.5501 108.009L76.296 79.7456C76.2655 79.2856 76.3287 78.8242 76.4817 78.39C76.6347 77.9558 76.8742 77.5582 77.1853 77.2218C77.4965 76.8854 77.8726 76.6174 78.2903 76.4346C78.7079 76.2517 79.1583 76.1579 79.6133 76.1589H79.7347C80.6195 76.1736 81.4655 76.5294 82.1006 77.1538C82.7357 77.7783 83.112 78.6245 83.1531 79.5202L84.3869 107.763C84.3989 108.676 84.0627 109.558 83.4485 110.226C82.8344 110.894 81.9895 111.297 81.0899 111.349ZM102.45 108.009C102.404 108.901 102.025 109.742 101.391 110.362C100.756 110.982 99.913 111.335 99.0315 111.349H98.9101C98.0069 111.302 97.157 110.902 96.5385 110.233C95.9201 109.564 95.5812 108.679 95.5928 107.763L96.8469 79.5202C96.893 78.6227 97.2736 77.7763 97.912 77.1524C98.5503 76.5284 99.3987 76.1733 100.286 76.1589H100.407C101.307 76.2116 102.151 76.614 102.766 77.2821C103.38 77.9502 103.716 78.8326 103.704 79.7456L102.45 108.009Z" fill="#273B5B"/>
</svg>
