<svg width="30" height="28" viewBox="0 0 30 28" fill="none" xmlns="http://www.w3.org/2000/svg">
<path d="M28.3705 3.28871H21.3314V1.82605C21.3101 1.56629 21.2353 1.3131 21.1113 1.08097C20.9873 0.848844 20.8166 0.64235 20.6088 0.47332C20.4011 0.30429 20.1604 0.176046 19.9006 0.095936C19.6409 0.015826 19.3671 -0.0145754 19.095 0.00647351H11.1394C10.5959 -0.026384 10.0607 0.145979 9.64916 0.48638C9.23765 0.826781 8.98282 1.30794 8.93965 1.82605V3.28871H1.85656C1.69301 3.28587 1.53054 3.31451 1.37885 3.37294C1.22715 3.43137 1.08936 3.51839 0.97369 3.62878C0.858023 3.73918 0.766856 3.8707 0.705638 4.01548C0.64442 4.16027 0.614407 4.31534 0.61739 4.47144C0.614433 4.62786 0.644411 4.78326 0.705546 4.92842C0.76668 5.07358 0.857728 5.20555 0.973291 5.3165C1.08885 5.42745 1.22658 5.51513 1.3783 5.57433C1.53003 5.63354 1.69266 5.66306 1.85656 5.66117H3.39637L4.92883 24.0879C4.94042 25.1293 5.382 26.1243 6.15768 26.8568C6.93335 27.5892 7.98048 28.0001 9.07163 28H21.1481C22.2387 27.9982 23.2847 27.5868 24.0599 26.8547C24.8352 26.1227 25.2774 25.1287 25.2909 24.0879L26.838 5.70316H28.3705C28.535 5.706 28.6984 5.67717 28.851 5.61839C29.0036 5.55961 29.1422 5.47208 29.2585 5.36104C29.3749 5.24999 29.4666 5.1177 29.5282 4.97207C29.5898 4.82644 29.62 4.67045 29.617 4.51343C29.6199 4.35477 29.5899 4.19712 29.5288 4.04956C29.4676 3.902 29.3765 3.76744 29.2606 3.65362C29.1448 3.5398 29.0065 3.44896 28.8537 3.38634C28.701 3.32371 28.5367 3.29054 28.3705 3.28871ZM11.3887 2.37892H18.8457V3.28871H11.3887V2.37892ZM11.8873 21.6315H11.8433C11.5237 21.6266 11.2181 21.5061 10.988 21.2943C10.758 21.0826 10.6208 20.7953 10.6041 20.4907L10.1495 10.84C10.1384 10.6829 10.1613 10.5253 10.2168 10.3771C10.2723 10.2288 10.3591 10.093 10.4719 9.97816C10.5847 9.86329 10.721 9.7718 10.8724 9.70936C11.0238 9.64693 11.1871 9.6149 11.352 9.61525H11.396C11.7167 9.62026 12.0234 9.74174 12.2537 9.95497C12.4839 10.1682 12.6203 10.4571 12.6352 10.763L13.0825 20.4068C13.0868 20.7185 12.9649 21.0198 12.7423 21.248C12.5196 21.4761 12.2134 21.6135 11.8873 21.6315ZM19.6303 20.4907C19.6136 20.7953 19.4764 21.0826 19.2463 21.2943C19.0163 21.5061 18.7106 21.6266 18.3911 21.6315H18.3471C18.0197 21.6152 17.7116 21.4786 17.4874 21.2503C17.2632 21.022 17.1404 20.7196 17.1446 20.4068L17.5992 10.763C17.6159 10.4565 17.7539 10.1675 17.9853 9.95447C18.2167 9.7414 18.5242 9.62016 18.8457 9.61525H18.8897C19.2158 9.63325 19.5221 9.77062 19.7447 9.99876C19.9674 10.2269 20.0892 10.5282 20.0849 10.84L19.6303 20.4907Z" fill="#273B5B"/>
</svg>
