<svg width="29" height="28" viewBox="0 0 29 28" fill="none" xmlns="http://www.w3.org/2000/svg">
<path d="M27.6551 21.516C27.8916 21.7706 28.022 22.1059 28.0196 22.4535C28.0219 22.6243 27.9883 22.7936 27.921 22.9506C27.8538 23.1076 27.7543 23.2487 27.629 23.3649L23.3585 27.6095C23.1148 27.8474 22.7877 27.9806 22.4471 27.9806C22.1065 27.9806 21.7794 27.8474 21.5357 27.6095L14.0099 20.1098L6.48421 27.6095C6.36649 27.7327 6.22506 27.8308 6.06842 27.898C5.91179 27.9651 5.7432 27.9998 5.57279 28.0001C5.40201 28.0023 5.23267 27.9687 5.07568 27.9014C4.9187 27.8341 4.77756 27.7347 4.66137 27.6095L0.390717 23.3649C0.265474 23.2487 0.165995 23.1076 0.0987112 22.9506C0.0314273 22.7936 -0.00216455 22.6243 0.000108076 22.4535C-0.00225561 22.1059 0.128145 21.7706 0.364676 21.516L7.91645 13.9903L0.364676 6.46455C0.12814 6.20993 -0.00226088 5.87461 0.000108076 5.52709C-0.00212563 5.3563 0.0314832 5.18695 0.0987646 5.02996C0.166046 4.87297 0.265504 4.73183 0.390717 4.61567L4.66137 0.371052C4.90511 0.133163 5.2322 0 5.57279 0C5.91338 0 6.24047 0.133163 6.48421 0.371052L14.0099 7.89678L21.5357 0.371052C21.7794 0.133163 22.1065 0 22.4471 0C22.7877 0 23.1148 0.133163 23.3585 0.371052L27.629 4.61567C27.7543 4.73183 27.8537 4.87297 27.921 5.02996C27.9883 5.18695 28.0219 5.3563 28.0196 5.52709C28.022 5.87461 27.8916 6.20993 27.6551 6.46455L20.1033 13.9903L27.6551 21.516Z" fill="#DE2B2B"/>
</svg>
