<svg width="26" height="28" viewBox="0 0 26 28" fill="none" xmlns="http://www.w3.org/2000/svg">
<path d="M25.2644 19.5076L23.0483 18.3027L13.431 23.5525C13.2674 23.6469 13.0819 23.6966 12.8931 23.6966C12.7043 23.6966 12.5187 23.6469 12.3552 23.5525L2.78088 18.3027L0.564806 19.5076C0.394026 19.5998 0.251363 19.7364 0.15193 19.9031C0.0524976 20.0697 0 20.2602 0 20.4543C0 20.6483 0.0524976 20.8388 0.15193 21.0054C0.251363 21.1721 0.394026 21.3088 0.564806 21.4009L12.3982 27.8555C12.5618 27.95 12.7473 27.9997 12.9361 27.9997C13.125 27.9997 13.3105 27.95 13.474 27.8555L25.3074 21.4009C25.4782 21.3088 25.6209 21.1721 25.7203 21.0054C25.8197 20.8388 25.8722 20.6483 25.8722 20.4543C25.8722 20.2602 25.8197 20.0697 25.7203 19.9031C25.6209 19.7364 25.4782 19.5998 25.3074 19.5076H25.2644Z" fill="#6C6B6B"/>
<path d="M0.564806 8.49207L12.3982 14.9467C12.5618 15.0411 12.7473 15.0908 12.9361 15.0908C13.125 15.0908 13.3105 15.0411 13.474 14.9467L25.3074 8.49207C25.4782 8.3999 25.6209 8.26324 25.7203 8.09658C25.8197 7.92992 25.8722 7.73947 25.8722 7.5454C25.8722 7.35133 25.8197 7.16088 25.7203 6.99422C25.6209 6.82756 25.4782 6.6909 25.3074 6.59872L13.474 0.144125C13.3105 0.0497071 13.125 0 12.9361 0C12.7473 0 12.5618 0.0497071 12.3982 0.144125L0.564806 6.59872C0.394026 6.6909 0.251363 6.82756 0.15193 6.99422C0.0524976 7.16088 0 7.35133 0 7.5454C0 7.73947 0.0524976 7.92992 0.15193 8.09658C0.251363 8.26324 0.394026 8.3999 0.564806 8.49207Z" fill="#6C6B6B"/>
<path d="M25.2644 13.053L23.0483 11.8481L13.431 17.0979C13.2674 17.1923 13.0819 17.242 12.8931 17.242C12.7043 17.242 12.5187 17.1923 12.3552 17.0979L5.02924 13.0745L2.78088 11.8481L0.564806 13.053C0.394026 13.1452 0.251363 13.2818 0.15193 13.4485C0.0524976 13.6152 0 13.8056 0 13.9997C0 14.1937 0.0524976 14.3842 0.15193 14.5509C0.251363 14.7175 0.394026 14.8542 0.564806 14.9464L12.3982 21.401C12.5618 21.4954 12.7473 21.5451 12.9361 21.5451C13.125 21.5451 13.3105 21.4954 13.474 21.401L25.3074 14.9464C25.4782 14.8542 25.6209 14.7175 25.7203 14.5509C25.8197 14.3842 25.8722 14.1937 25.8722 13.9997C25.8722 13.8056 25.8197 13.6152 25.7203 13.4485C25.6209 13.2818 25.4782 13.1452 25.3074 13.053H25.2644Z" fill="#6C6B6B"/>
</svg>
