<svg width="21" height="21" viewBox="0 0 21 21" fill="none" xmlns="http://www.w3.org/2000/svg">
<path d="M1.5036 20.048H12.0288C12.4276 20.048 12.81 19.8896 13.092 19.6076C13.374 19.3256 13.5324 18.9432 13.5324 18.5444V14.2842C13.5324 13.8854 13.374 13.503 13.092 13.221C12.81 12.939 12.4276 12.7806 12.0288 12.7806H7.60822C7.25149 12.7806 6.89824 12.7103 6.56866 12.5738C6.23908 12.4373 5.93961 12.2372 5.68736 11.985C5.43511 11.7327 5.23502 11.4333 5.0985 11.1037C4.96198 10.7741 4.89172 10.4208 4.89172 10.0641C4.89172 9.70737 4.96198 9.35413 5.0985 9.02454C5.23502 8.69496 5.43511 8.3955 5.68736 8.14325C5.93961 7.891 6.23908 7.6909 6.56866 7.55438C6.89824 7.41786 7.25149 7.3476 7.60822 7.3476H12.0639C12.4627 7.3476 12.8451 7.18919 13.1271 6.90721C13.4091 6.62523 13.5675 6.24278 13.5675 5.844V1.5036C13.5675 1.10482 13.4091 0.722375 13.1271 0.440395C12.8451 0.158415 12.4627 0 12.0639 0L1.5036 0C1.10482 0 0.722375 0.158415 0.440395 0.440395C0.158415 0.722375 0 1.10482 0 1.5036L0 18.5444C0 18.9432 0.158415 19.3256 0.440395 19.6076C0.722375 19.8896 1.10482 20.048 1.5036 20.048Z" fill="white"/>
<path d="M15.4821 5.73411V8.66613H7.60825C7.24802 8.66613 6.90254 8.80923 6.64782 9.06395C6.3931 9.31867 6.25 9.66415 6.25 10.0244C6.25 10.3846 6.3931 10.7301 6.64782 10.9848C6.90254 11.2395 7.24802 11.3826 7.60825 11.3826H15.4821V14.2345C15.4833 14.3756 15.5262 14.5133 15.6053 14.6302C15.6845 14.7471 15.7964 14.838 15.927 14.8915C16.0576 14.945 16.2011 14.9588 16.3396 14.9311C16.478 14.9034 16.6051 14.8354 16.705 14.7357L20.8099 10.3351C20.937 10.1973 21.005 10.0152 20.9994 9.82779C20.9937 9.64041 20.9149 9.46268 20.7798 9.33273L16.68 5.23291C16.5815 5.13445 16.4561 5.06751 16.3195 5.04059C16.1829 5.01367 16.0414 5.02798 15.9129 5.08172C15.7845 5.13546 15.675 5.22618 15.5982 5.34235C15.5215 5.45853 15.4811 5.59489 15.4821 5.73411Z" fill="white"/>
</svg>
