<svg width="22" height="23" viewBox="0 0 22 23" fill="none" xmlns="http://www.w3.org/2000/svg">
<path d="M8.43286 8.79345C9.04083 8.79345 9.53368 8.30059 9.53368 7.69262C9.53368 7.08465 9.04083 6.5918 8.43286 6.5918C7.82489 6.5918 7.33203 7.08465 7.33203 7.69262C7.33203 8.30059 7.82489 8.79345 8.43286 8.79345Z" fill="#273B5B"/>
<path d="M12.5891 15.1548C13.1971 15.1548 13.6899 14.6619 13.6899 14.054C13.6899 13.446 13.1971 12.9531 12.5891 12.9531C11.9811 12.9531 11.4883 13.446 11.4883 14.054C11.4883 14.6619 11.9811 15.1548 12.5891 15.1548Z" fill="#273B5B"/>
<path d="M20.9082 13.5402L19.6606 10.996L20.9082 8.45189C21.1773 7.88925 20.9571 7.22875 20.419 6.9352L17.9238 5.61421L17.4345 2.82545C17.3367 2.21388 16.7495 1.79802 16.138 1.89587L13.3248 2.28727L11.2943 0.330248C10.854 -0.110083 10.1446 -0.110083 9.70426 0.330248L7.67385 2.28727L4.88509 1.8714C4.27352 1.77355 3.71088 2.18942 3.58856 2.80099L3.09931 5.58975L0.604102 6.9352C0.0659206 7.22875 -0.154245 7.88925 0.114846 8.45189L1.36245 10.996L0.114846 13.5402C-0.154245 14.1028 0.0659206 14.7633 0.604102 15.0568L3.09931 16.3778L3.58856 19.1666C3.68641 19.7782 4.27352 20.194 4.88509 20.0962L7.69831 19.7048L9.72872 21.6863C10.1691 22.1266 10.8785 22.1266 11.3188 21.6863L13.3492 19.7048L16.138 20.1206C16.7495 20.2185 17.3122 19.8026 17.4345 19.1911L17.9238 16.4023L20.419 15.0813C20.9571 14.7633 21.1773 14.1028 20.9082 13.5402ZM6.35286 7.69355C6.35286 6.5438 7.28244 5.61421 8.43219 5.61421C9.58195 5.61421 10.5115 6.5438 10.5115 7.69355C10.5115 8.8433 9.58195 9.77288 8.43219 9.77288C7.28244 9.77288 6.35286 8.8433 6.35286 7.69355ZM7.84509 15.2036C7.74724 15.3259 7.60046 15.3993 7.45368 15.3993C7.35583 15.3993 7.25798 15.3749 7.16013 15.3015C6.93996 15.1302 6.9155 14.8367 7.06228 14.6165L13.3981 6.29917C13.5694 6.079 13.8629 6.05454 14.0831 6.20132C14.3033 6.37256 14.3277 6.66611 14.1809 6.88628L7.84509 15.2036ZM12.5909 16.1332C11.4411 16.1332 10.5115 15.2036 10.5115 14.0539C10.5115 12.9041 11.4411 11.9745 12.5909 11.9745C13.7406 11.9745 14.6702 12.9041 14.6702 14.0539C14.6702 15.2036 13.7406 16.1332 12.5909 16.1332Z" fill="#273B5B"/>
</svg>
