<svg width="486" height="608" viewBox="0 0 486 608" fill="none" xmlns="http://www.w3.org/2000/svg">
<path d="M191.625 451.625C191.625 457.042 190.312 461.75 187.688 465.75C185.062 469.75 181.229 472.833 176.188 475C171.188 477.167 165.104 478.25 157.938 478.25C154.771 478.25 151.667 478.042 148.625 477.625C145.625 477.208 142.729 476.604 139.938 475.812C137.188 474.979 134.562 473.958 132.062 472.75V454.75C136.396 456.667 140.896 458.396 145.562 459.938C150.229 461.479 154.854 462.25 159.438 462.25C162.604 462.25 165.146 461.833 167.062 461C169.021 460.167 170.438 459.021 171.312 457.562C172.188 456.104 172.625 454.438 172.625 452.562C172.625 450.271 171.854 448.312 170.312 446.688C168.771 445.062 166.646 443.542 163.938 442.125C161.271 440.708 158.25 439.188 154.875 437.562C152.75 436.562 150.438 435.354 147.938 433.938C145.438 432.479 143.062 430.708 140.812 428.625C138.562 426.542 136.708 424.021 135.25 421.062C133.833 418.062 133.125 414.479 133.125 410.312C133.125 404.854 134.375 400.188 136.875 396.312C139.375 392.438 142.938 389.479 147.562 387.438C152.229 385.354 157.729 384.312 164.062 384.312C168.812 384.312 173.333 384.875 177.625 386C181.958 387.083 186.479 388.667 191.188 390.75L184.938 405.812C180.729 404.104 176.958 402.792 173.625 401.875C170.292 400.917 166.896 400.438 163.438 400.438C161.021 400.438 158.958 400.833 157.25 401.625C155.542 402.375 154.25 403.458 153.375 404.875C152.5 406.25 152.062 407.854 152.062 409.688C152.062 411.854 152.688 413.688 153.938 415.188C155.229 416.646 157.146 418.062 159.688 419.438C162.271 420.812 165.479 422.417 169.312 424.25C173.979 426.458 177.958 428.771 181.25 431.188C184.583 433.562 187.146 436.375 188.938 439.625C190.729 442.833 191.625 446.833 191.625 451.625ZM208.188 477V385.625H227.562V477H208.188ZM289.25 477L267.25 405.312H266.688C266.771 407.021 266.896 409.604 267.062 413.062C267.271 416.479 267.458 420.125 267.625 424C267.792 427.875 267.875 431.375 267.875 434.5V477H250.562V385.625H276.938L298.562 455.5H298.938L321.875 385.625H348.25V477H330.188V433.75C330.188 430.875 330.229 427.562 330.312 423.812C330.438 420.062 330.583 416.5 330.75 413.125C330.917 409.708 331.042 407.146 331.125 405.438H330.562L307 477H289.25Z" fill="#FAFAFC"/>
<path d="M18.334 541.162C18.334 542.686 17.9531 543.986 17.1914 545.064C16.4414 546.131 15.3867 546.945 14.0273 547.508C12.668 548.07 11.0684 548.352 9.22852 548.352C8.25586 548.352 7.33594 548.305 6.46875 548.211C5.60156 548.117 4.80469 547.982 4.07812 547.807C3.35156 547.631 2.71289 547.414 2.16211 547.156V544.291C3.04102 544.654 4.11328 544.994 5.37891 545.311C6.64453 545.615 7.96875 545.768 9.35156 545.768C10.6406 545.768 11.7305 545.598 12.6211 545.258C13.5117 544.906 14.1855 544.408 14.6426 543.764C15.1113 543.107 15.3457 542.322 15.3457 541.408C15.3457 540.529 15.1523 539.797 14.7656 539.211C14.3789 538.613 13.7344 538.074 12.832 537.594C11.9414 537.102 10.7227 536.58 9.17578 536.029C8.08594 535.643 7.125 535.221 6.29297 534.764C5.46094 534.295 4.76367 533.768 4.20117 533.182C3.63867 532.596 3.21094 531.916 2.91797 531.143C2.63672 530.369 2.49609 529.484 2.49609 528.488C2.49609 527.117 2.8418 525.945 3.5332 524.973C4.23633 523.988 5.20312 523.238 6.43359 522.723C7.67578 522.195 9.09961 521.932 10.7051 521.932C12.0762 521.932 13.3418 522.061 14.502 522.318C15.6738 522.576 16.7461 522.922 17.7188 523.355L16.7871 525.922C15.8613 525.535 14.877 525.213 13.834 524.955C12.8027 524.697 11.7363 524.568 10.6348 524.568C9.5332 524.568 8.60156 524.732 7.83984 525.061C7.08984 525.377 6.51562 525.828 6.11719 526.414C5.71875 527 5.51953 527.697 5.51953 528.506C5.51953 529.408 5.70703 530.158 6.08203 530.756C6.46875 531.354 7.07812 531.887 7.91016 532.355C8.75391 532.812 9.86719 533.293 11.25 533.797C12.7617 534.348 14.0449 534.934 15.0996 535.555C16.1543 536.164 16.957 536.914 17.5078 537.805C18.0586 538.684 18.334 539.803 18.334 541.162ZM26.0684 528.734V548H23.1504V528.734H26.0684ZM24.6445 521.527C25.125 521.527 25.5352 521.686 25.875 522.002C26.2266 522.307 26.4023 522.787 26.4023 523.443C26.4023 524.088 26.2266 524.568 25.875 524.885C25.5352 525.201 25.125 525.359 24.6445 525.359C24.1406 525.359 23.7188 525.201 23.3789 524.885C23.0508 524.568 22.8867 524.088 22.8867 523.443C22.8867 522.787 23.0508 522.307 23.3789 522.002C23.7188 521.686 24.1406 521.527 24.6445 521.527ZM44.7188 542.727C44.7188 543.957 44.4082 544.994 43.7871 545.838C43.1777 546.67 42.2988 547.297 41.1504 547.719C40.0137 548.141 38.6543 548.352 37.0723 548.352C35.7246 548.352 34.5586 548.246 33.5742 548.035C32.5898 547.824 31.7285 547.525 30.9902 547.139V544.449C31.7754 544.836 32.7129 545.188 33.8027 545.504C34.8926 545.82 36.0059 545.979 37.1426 545.979C38.8066 545.979 40.0137 545.709 40.7637 545.17C41.5137 544.631 41.8887 543.898 41.8887 542.973C41.8887 542.445 41.7363 541.982 41.4316 541.584C41.1387 541.174 40.6406 540.781 39.9375 540.406C39.2344 540.02 38.2617 539.598 37.0195 539.141C35.7891 538.672 34.7227 538.209 33.8203 537.752C32.9297 537.283 32.2383 536.715 31.7461 536.047C31.2656 535.379 31.0254 534.512 31.0254 533.445C31.0254 531.816 31.6816 530.568 32.9941 529.701C34.3184 528.822 36.0527 528.383 38.1973 528.383C39.3574 528.383 40.4414 528.5 41.4492 528.734C42.4688 528.957 43.418 529.262 44.2969 529.648L43.3125 531.986C42.5156 531.646 41.666 531.359 40.7637 531.125C39.8613 530.891 38.9414 530.773 38.0039 530.773C36.6562 530.773 35.6191 530.996 34.8926 531.441C34.1777 531.887 33.8203 532.496 33.8203 533.27C33.8203 533.867 33.9844 534.359 34.3125 534.746C34.6523 535.133 35.1914 535.496 35.9297 535.836C36.668 536.176 37.6406 536.574 38.8477 537.031C40.0547 537.477 41.0977 537.939 41.9766 538.42C42.8555 538.889 43.5293 539.463 43.998 540.143C44.4785 540.811 44.7188 541.672 44.7188 542.727ZM55.6348 545.961C56.1152 545.961 56.6074 545.92 57.1113 545.838C57.6152 545.756 58.0254 545.656 58.3418 545.539V547.807C58.002 547.959 57.5273 548.088 56.918 548.193C56.3203 548.299 55.7344 548.352 55.1602 548.352C54.1406 548.352 53.2148 548.176 52.3828 547.824C51.5508 547.461 50.8828 546.852 50.3789 545.996C49.8867 545.141 49.6406 543.957 49.6406 542.445V531.02H46.8984V529.596L49.6582 528.453L50.8184 524.27H52.5762V528.734H58.2188V531.02H52.5762V542.357C52.5762 543.564 52.8516 544.467 53.4023 545.064C53.9648 545.662 54.709 545.961 55.6348 545.961ZM69.6621 528.383C71.3027 528.383 72.709 528.746 73.8809 529.473C75.0527 530.199 75.9492 531.219 76.5703 532.531C77.1914 533.832 77.502 535.355 77.502 537.102V538.912H64.1953C64.2305 541.174 64.793 542.896 65.8828 544.08C66.9727 545.264 68.5078 545.855 70.4883 545.855C71.707 545.855 72.7852 545.744 73.7227 545.521C74.6602 545.299 75.6328 544.971 76.6406 544.537V547.104C75.668 547.537 74.7012 547.854 73.7402 548.053C72.791 548.252 71.666 548.352 70.3652 548.352C68.5137 548.352 66.8965 547.977 65.5137 547.227C64.1426 546.465 63.0762 545.352 62.3145 543.887C61.5527 542.422 61.1719 540.629 61.1719 538.508C61.1719 536.434 61.5176 534.641 62.209 533.129C62.9121 531.605 63.8965 530.434 65.1621 529.613C66.4395 528.793 67.9395 528.383 69.6621 528.383ZM69.627 530.773C68.0684 530.773 66.8262 531.283 65.9004 532.303C64.9746 533.322 64.4238 534.746 64.248 536.574H74.4434C74.4316 535.426 74.25 534.418 73.8984 533.551C73.5586 532.672 73.0371 531.992 72.334 531.512C71.6309 531.02 70.7285 530.773 69.627 530.773ZM103.377 528.383C105.498 528.383 107.098 528.939 108.176 530.053C109.254 531.154 109.793 532.93 109.793 535.379V548H106.91V535.52C106.91 533.961 106.57 532.795 105.891 532.021C105.223 531.236 104.227 530.844 102.902 530.844C101.039 530.844 99.6855 531.383 98.8418 532.461C97.998 533.539 97.5762 535.127 97.5762 537.225V548H94.6758V535.52C94.6758 534.477 94.5234 533.609 94.2188 532.918C93.9258 532.227 93.4805 531.711 92.8828 531.371C92.2969 531.02 91.5527 530.844 90.6504 530.844C89.373 530.844 88.3477 531.107 87.5742 531.635C86.8008 532.162 86.2383 532.947 85.8867 533.99C85.5469 535.021 85.377 536.293 85.377 537.805V548H82.459V528.734H84.8145L85.2539 531.459H85.4121C85.7988 530.791 86.2852 530.229 86.8711 529.771C87.457 529.314 88.1133 528.969 88.8398 528.734C89.5664 528.5 90.3398 528.383 91.1602 528.383C92.625 528.383 93.8496 528.658 94.834 529.209C95.8301 529.748 96.5508 530.574 96.9961 531.688H97.1543C97.7871 530.574 98.6543 529.748 99.7559 529.209C100.857 528.658 102.064 528.383 103.377 528.383ZM122.994 528.418C125.291 528.418 126.996 528.934 128.109 529.965C129.223 530.996 129.779 532.643 129.779 534.904V548H127.652L127.09 545.152H126.949C126.41 545.855 125.848 546.447 125.262 546.928C124.676 547.396 123.996 547.754 123.223 548C122.461 548.234 121.523 548.352 120.41 548.352C119.238 548.352 118.195 548.146 117.281 547.736C116.379 547.326 115.664 546.705 115.137 545.873C114.621 545.041 114.363 543.986 114.363 542.709C114.363 540.787 115.125 539.311 116.648 538.279C118.172 537.248 120.492 536.686 123.609 536.592L126.932 536.451V535.273C126.932 533.609 126.574 532.443 125.859 531.775C125.145 531.107 124.137 530.773 122.836 530.773C121.828 530.773 120.867 530.92 119.953 531.213C119.039 531.506 118.172 531.852 117.352 532.25L116.455 530.035C117.322 529.59 118.318 529.209 119.443 528.893C120.568 528.576 121.752 528.418 122.994 528.418ZM126.896 538.508L123.961 538.631C121.559 538.725 119.865 539.117 118.881 539.809C117.896 540.5 117.404 541.479 117.404 542.744C117.404 543.846 117.738 544.66 118.406 545.188C119.074 545.715 119.959 545.979 121.061 545.979C122.771 545.979 124.172 545.504 125.262 544.555C126.352 543.605 126.896 542.182 126.896 540.283V538.508ZM151.998 548.352C149.561 548.352 147.627 547.52 146.197 545.855C144.779 544.191 144.07 541.719 144.07 538.438C144.07 535.121 144.797 532.619 146.25 530.932C147.703 529.232 149.637 528.383 152.051 528.383C153.07 528.383 153.961 528.518 154.723 528.787C155.484 529.057 156.141 529.42 156.691 529.877C157.242 530.322 157.705 530.832 158.08 531.406H158.291C158.244 531.043 158.197 530.545 158.15 529.912C158.104 529.279 158.08 528.764 158.08 528.365V520.648H160.998V548H158.643L158.203 545.258H158.08C157.717 545.832 157.254 546.354 156.691 546.822C156.141 547.291 155.479 547.666 154.705 547.947C153.943 548.217 153.041 548.352 151.998 548.352ZM152.455 545.926C154.518 545.926 155.977 545.34 156.832 544.168C157.688 542.996 158.115 541.256 158.115 538.947V538.42C158.115 535.971 157.705 534.09 156.885 532.777C156.076 531.465 154.6 530.809 152.455 530.809C150.662 530.809 149.32 531.5 148.43 532.883C147.539 534.254 147.094 536.129 147.094 538.508C147.094 540.875 147.533 542.703 148.412 543.992C149.303 545.281 150.65 545.926 152.455 545.926ZM174.604 528.383C176.244 528.383 177.65 528.746 178.822 529.473C179.994 530.199 180.891 531.219 181.512 532.531C182.133 533.832 182.443 535.355 182.443 537.102V538.912H169.137C169.172 541.174 169.734 542.896 170.824 544.08C171.914 545.264 173.449 545.855 175.43 545.855C176.648 545.855 177.727 545.744 178.664 545.521C179.602 545.299 180.574 544.971 181.582 544.537V547.104C180.609 547.537 179.643 547.854 178.682 548.053C177.732 548.252 176.607 548.352 175.307 548.352C173.455 548.352 171.838 547.977 170.455 547.227C169.084 546.465 168.018 545.352 167.256 543.887C166.494 542.422 166.113 540.629 166.113 538.508C166.113 536.434 166.459 534.641 167.15 533.129C167.854 531.605 168.838 530.434 170.104 529.613C171.381 528.793 172.881 528.383 174.604 528.383ZM174.568 530.773C173.01 530.773 171.768 531.283 170.842 532.303C169.916 533.322 169.365 534.746 169.189 536.574H179.385C179.373 535.426 179.191 534.418 178.84 533.551C178.5 532.672 177.979 531.992 177.275 531.512C176.572 531.02 175.67 530.773 174.568 530.773ZM197.191 548V522.301H200.18V548H197.191ZM215.93 528.383C218.215 528.383 219.943 528.945 221.115 530.07C222.287 531.184 222.873 532.977 222.873 535.449V548H219.99V535.643C219.99 534.037 219.621 532.836 218.883 532.039C218.156 531.242 217.037 530.844 215.525 530.844C213.393 530.844 211.893 531.447 211.025 532.654C210.158 533.861 209.725 535.613 209.725 537.91V548H206.807V528.734H209.162L209.602 531.512H209.76C210.17 530.832 210.691 530.264 211.324 529.807C211.957 529.338 212.666 528.986 213.451 528.752C214.236 528.506 215.062 528.383 215.93 528.383ZM235.107 545.961C235.588 545.961 236.08 545.92 236.584 545.838C237.088 545.756 237.498 545.656 237.814 545.539V547.807C237.475 547.959 237 548.088 236.391 548.193C235.793 548.299 235.207 548.352 234.633 548.352C233.613 548.352 232.688 548.176 231.855 547.824C231.023 547.461 230.355 546.852 229.852 545.996C229.359 545.141 229.113 543.957 229.113 542.445V531.02H226.371V529.596L229.131 528.453L230.291 524.27H232.049V528.734H237.691V531.02H232.049V542.357C232.049 543.564 232.324 544.467 232.875 545.064C233.438 545.662 234.182 545.961 235.107 545.961ZM249.135 528.383C250.775 528.383 252.182 528.746 253.354 529.473C254.525 530.199 255.422 531.219 256.043 532.531C256.664 533.832 256.975 535.355 256.975 537.102V538.912H243.668C243.703 541.174 244.266 542.896 245.355 544.08C246.445 545.264 247.98 545.855 249.961 545.855C251.18 545.855 252.258 545.744 253.195 545.521C254.133 545.299 255.105 544.971 256.113 544.537V547.104C255.141 547.537 254.174 547.854 253.213 548.053C252.264 548.252 251.139 548.352 249.838 548.352C247.986 548.352 246.369 547.977 244.986 547.227C243.615 546.465 242.549 545.352 241.787 543.887C241.025 542.422 240.645 540.629 240.645 538.508C240.645 536.434 240.99 534.641 241.682 533.129C242.385 531.605 243.369 530.434 244.635 529.613C245.912 528.793 247.412 528.383 249.135 528.383ZM249.1 530.773C247.541 530.773 246.299 531.283 245.373 532.303C244.447 533.322 243.896 534.746 243.721 536.574H253.916C253.904 535.426 253.723 534.418 253.371 533.551C253.031 532.672 252.51 531.992 251.807 531.512C251.104 531.02 250.201 530.773 249.1 530.773ZM270.686 528.383C271.072 528.383 271.477 528.406 271.898 528.453C272.32 528.488 272.695 528.541 273.023 528.611L272.654 531.318C272.338 531.236 271.986 531.172 271.6 531.125C271.213 531.078 270.85 531.055 270.51 531.055C269.736 531.055 269.004 531.213 268.312 531.529C267.633 531.834 267.035 532.279 266.52 532.865C266.004 533.439 265.6 534.137 265.307 534.957C265.014 535.766 264.867 536.668 264.867 537.664V548H261.932V528.734H264.357L264.674 532.285H264.797C265.195 531.57 265.676 530.92 266.238 530.334C266.801 529.736 267.451 529.262 268.189 528.91C268.939 528.559 269.771 528.383 270.686 528.383ZM293.273 538.332C293.273 539.914 293.068 541.326 292.658 542.568C292.248 543.811 291.656 544.859 290.883 545.715C290.109 546.57 289.172 547.227 288.07 547.684C286.98 548.129 285.744 548.352 284.361 548.352C283.072 548.352 281.889 548.129 280.811 547.684C279.744 547.227 278.818 546.57 278.033 545.715C277.26 544.859 276.656 543.811 276.223 542.568C275.801 541.326 275.59 539.914 275.59 538.332C275.59 536.223 275.947 534.43 276.662 532.953C277.377 531.465 278.396 530.334 279.721 529.561C281.057 528.775 282.645 528.383 284.484 528.383C286.242 528.383 287.777 528.775 289.09 529.561C290.414 530.346 291.439 531.482 292.166 532.971C292.904 534.447 293.273 536.234 293.273 538.332ZM278.613 538.332C278.613 539.879 278.818 541.221 279.229 542.357C279.639 543.494 280.271 544.373 281.127 544.994C281.982 545.615 283.084 545.926 284.432 545.926C285.768 545.926 286.863 545.615 287.719 544.994C288.586 544.373 289.225 543.494 289.635 542.357C290.045 541.221 290.25 539.879 290.25 538.332C290.25 536.797 290.045 535.473 289.635 534.359C289.225 533.234 288.592 532.367 287.736 531.758C286.881 531.148 285.773 530.844 284.414 530.844C282.41 530.844 280.939 531.506 280.002 532.83C279.076 534.154 278.613 535.988 278.613 538.332ZM307.371 528.383C309.773 528.383 311.689 529.209 313.119 530.861C314.549 532.514 315.264 534.998 315.264 538.314C315.264 540.506 314.936 542.346 314.279 543.834C313.623 545.322 312.697 546.447 311.502 547.209C310.318 547.971 308.918 548.352 307.301 548.352C306.281 548.352 305.385 548.217 304.611 547.947C303.838 547.678 303.176 547.314 302.625 546.857C302.074 546.4 301.617 545.902 301.254 545.363H301.043C301.078 545.82 301.119 546.371 301.166 547.016C301.225 547.66 301.254 548.223 301.254 548.703V556.613H298.318V528.734H300.727L301.113 531.582H301.254C301.629 530.996 302.086 530.463 302.625 529.982C303.164 529.49 303.82 529.104 304.594 528.822C305.379 528.529 306.305 528.383 307.371 528.383ZM306.861 530.844C305.525 530.844 304.447 531.102 303.627 531.617C302.818 532.133 302.227 532.906 301.852 533.938C301.477 534.957 301.277 536.24 301.254 537.787V538.35C301.254 539.979 301.43 541.355 301.781 542.48C302.145 543.605 302.736 544.461 303.557 545.047C304.389 545.633 305.502 545.926 306.896 545.926C308.092 545.926 309.088 545.604 309.885 544.959C310.682 544.314 311.273 543.418 311.66 542.27C312.059 541.109 312.258 539.779 312.258 538.279C312.258 536.006 311.812 534.201 310.922 532.865C310.043 531.518 308.689 530.844 306.861 530.844ZM327.779 528.383C329.42 528.383 330.826 528.746 331.998 529.473C333.17 530.199 334.066 531.219 334.688 532.531C335.309 533.832 335.619 535.355 335.619 537.102V538.912H322.312C322.348 541.174 322.91 542.896 324 544.08C325.09 545.264 326.625 545.855 328.605 545.855C329.824 545.855 330.902 545.744 331.84 545.521C332.777 545.299 333.75 544.971 334.758 544.537V547.104C333.785 547.537 332.818 547.854 331.857 548.053C330.908 548.252 329.783 548.352 328.482 548.352C326.631 548.352 325.014 547.977 323.631 547.227C322.26 546.465 321.193 545.352 320.432 543.887C319.67 542.422 319.289 540.629 319.289 538.508C319.289 536.434 319.635 534.641 320.326 533.129C321.029 531.605 322.014 530.434 323.279 529.613C324.557 528.793 326.057 528.383 327.779 528.383ZM327.744 530.773C326.186 530.773 324.943 531.283 324.018 532.303C323.092 533.322 322.541 534.746 322.365 536.574H332.561C332.549 535.426 332.367 534.418 332.016 533.551C331.676 532.672 331.154 531.992 330.451 531.512C329.748 531.02 328.846 530.773 327.744 530.773ZM349.33 528.383C349.717 528.383 350.121 528.406 350.543 528.453C350.965 528.488 351.34 528.541 351.668 528.611L351.299 531.318C350.982 531.236 350.631 531.172 350.244 531.125C349.857 531.078 349.494 531.055 349.154 531.055C348.381 531.055 347.648 531.213 346.957 531.529C346.277 531.834 345.68 532.279 345.164 532.865C344.648 533.439 344.244 534.137 343.951 534.957C343.658 535.766 343.512 536.668 343.512 537.664V548H340.576V528.734H343.002L343.318 532.285H343.441C343.84 531.57 344.32 530.92 344.883 530.334C345.445 529.736 346.096 529.262 346.834 528.91C347.584 528.559 348.416 528.383 349.33 528.383ZM362.514 528.418C364.811 528.418 366.516 528.934 367.629 529.965C368.742 530.996 369.299 532.643 369.299 534.904V548H367.172L366.609 545.152H366.469C365.93 545.855 365.367 546.447 364.781 546.928C364.195 547.396 363.516 547.754 362.742 548C361.98 548.234 361.043 548.352 359.93 548.352C358.758 548.352 357.715 548.146 356.801 547.736C355.898 547.326 355.184 546.705 354.656 545.873C354.141 545.041 353.883 543.986 353.883 542.709C353.883 540.787 354.645 539.311 356.168 538.279C357.691 537.248 360.012 536.686 363.129 536.592L366.451 536.451V535.273C366.451 533.609 366.094 532.443 365.379 531.775C364.664 531.107 363.656 530.773 362.355 530.773C361.348 530.773 360.387 530.92 359.473 531.213C358.559 531.506 357.691 531.852 356.871 532.25L355.975 530.035C356.842 529.59 357.838 529.209 358.963 528.893C360.088 528.576 361.271 528.418 362.514 528.418ZM366.416 538.508L363.48 538.631C361.078 538.725 359.385 539.117 358.4 539.809C357.416 540.5 356.924 541.479 356.924 542.744C356.924 543.846 357.258 544.66 357.926 545.188C358.594 545.715 359.479 545.979 360.58 545.979C362.291 545.979 363.691 545.504 364.781 544.555C365.871 543.605 366.416 542.182 366.416 540.283V538.508ZM378.229 520.648V527.486C378.229 528.271 378.205 529.033 378.158 529.771C378.123 530.51 378.094 531.084 378.07 531.494H378.229C378.756 530.627 379.518 529.895 380.514 529.297C381.51 528.699 382.781 528.4 384.328 528.4C386.742 528.4 388.664 529.238 390.094 530.914C391.535 532.578 392.256 535.057 392.256 538.35C392.256 540.518 391.928 542.346 391.271 543.834C390.615 545.322 389.689 546.447 388.494 547.209C387.299 547.971 385.887 548.352 384.258 548.352C382.734 548.352 381.48 548.07 380.496 547.508C379.523 546.934 378.773 546.236 378.246 545.416H378.018L377.42 548H375.311V520.648H378.229ZM383.854 530.844C382.459 530.844 381.352 531.119 380.531 531.67C379.711 532.209 379.119 533.029 378.756 534.131C378.404 535.221 378.229 536.604 378.229 538.279V538.438C378.229 540.863 378.633 542.721 379.441 544.01C380.25 545.287 381.721 545.926 383.854 545.926C385.646 545.926 386.988 545.27 387.879 543.957C388.781 542.645 389.232 540.77 389.232 538.332C389.232 535.848 388.787 533.979 387.896 532.725C387.018 531.471 385.67 530.844 383.854 530.844ZM400.271 528.734V548H397.354V528.734H400.271ZM398.848 521.527C399.328 521.527 399.738 521.686 400.078 522.002C400.43 522.307 400.605 522.787 400.605 523.443C400.605 524.088 400.43 524.568 400.078 524.885C399.738 525.201 399.328 525.359 398.848 525.359C398.344 525.359 397.922 525.201 397.582 524.885C397.254 524.568 397.09 524.088 397.09 523.443C397.09 522.787 397.254 522.307 397.582 522.002C397.922 521.686 398.344 521.527 398.848 521.527ZM409.395 548H406.459V520.648H409.395V548ZM418.482 528.734V548H415.564V528.734H418.482ZM417.059 521.527C417.539 521.527 417.949 521.686 418.289 522.002C418.641 522.307 418.816 522.787 418.816 523.443C418.816 524.088 418.641 524.568 418.289 524.885C417.949 525.201 417.539 525.359 417.059 525.359C416.555 525.359 416.133 525.201 415.793 524.885C415.465 524.568 415.301 524.088 415.301 523.443C415.301 522.787 415.465 522.307 415.793 522.002C416.133 521.686 416.555 521.527 417.059 521.527ZM431.525 548.352C429.088 548.352 427.154 547.52 425.725 545.855C424.307 544.191 423.598 541.719 423.598 538.438C423.598 535.121 424.324 532.619 425.777 530.932C427.23 529.232 429.164 528.383 431.578 528.383C432.598 528.383 433.488 528.518 434.25 528.787C435.012 529.057 435.668 529.42 436.219 529.877C436.77 530.322 437.232 530.832 437.607 531.406H437.818C437.771 531.043 437.725 530.545 437.678 529.912C437.631 529.279 437.607 528.764 437.607 528.365V520.648H440.525V548H438.17L437.73 545.258H437.607C437.244 545.832 436.781 546.354 436.219 546.822C435.668 547.291 435.006 547.666 434.232 547.947C433.471 548.217 432.568 548.352 431.525 548.352ZM431.982 545.926C434.045 545.926 435.504 545.34 436.359 544.168C437.215 542.996 437.643 541.256 437.643 538.947V538.42C437.643 535.971 437.232 534.09 436.412 532.777C435.604 531.465 434.127 530.809 431.982 530.809C430.189 530.809 428.848 531.5 427.957 532.883C427.066 534.254 426.621 536.129 426.621 538.508C426.621 540.875 427.061 542.703 427.939 543.992C428.83 545.281 430.178 545.926 431.982 545.926ZM453.92 528.418C456.217 528.418 457.922 528.934 459.035 529.965C460.148 530.996 460.705 532.643 460.705 534.904V548H458.578L458.016 545.152H457.875C457.336 545.855 456.773 546.447 456.188 546.928C455.602 547.396 454.922 547.754 454.148 548C453.387 548.234 452.449 548.352 451.336 548.352C450.164 548.352 449.121 548.146 448.207 547.736C447.305 547.326 446.59 546.705 446.062 545.873C445.547 545.041 445.289 543.986 445.289 542.709C445.289 540.787 446.051 539.311 447.574 538.279C449.098 537.248 451.418 536.686 454.535 536.592L457.857 536.451V535.273C457.857 533.609 457.5 532.443 456.785 531.775C456.07 531.107 455.062 530.773 453.762 530.773C452.754 530.773 451.793 530.92 450.879 531.213C449.965 531.506 449.098 531.852 448.277 532.25L447.381 530.035C448.248 529.59 449.244 529.209 450.369 528.893C451.494 528.576 452.678 528.418 453.92 528.418ZM457.822 538.508L454.887 538.631C452.484 538.725 450.791 539.117 449.807 539.809C448.822 540.5 448.33 541.479 448.33 542.744C448.33 543.846 448.664 544.66 449.332 545.188C450 545.715 450.885 545.979 451.986 545.979C453.697 545.979 455.098 545.504 456.188 544.555C457.277 543.605 457.822 542.182 457.822 540.283V538.508ZM473.572 548.352C471.135 548.352 469.201 547.52 467.771 545.855C466.354 544.191 465.645 541.719 465.645 538.438C465.645 535.121 466.371 532.619 467.824 530.932C469.277 529.232 471.211 528.383 473.625 528.383C474.645 528.383 475.535 528.518 476.297 528.787C477.059 529.057 477.715 529.42 478.266 529.877C478.816 530.322 479.279 530.832 479.654 531.406H479.865C479.818 531.043 479.771 530.545 479.725 529.912C479.678 529.279 479.654 528.764 479.654 528.365V520.648H482.572V548H480.217L479.777 545.258H479.654C479.291 545.832 478.828 546.354 478.266 546.822C477.715 547.291 477.053 547.666 476.279 547.947C475.518 548.217 474.615 548.352 473.572 548.352ZM474.029 545.926C476.092 545.926 477.551 545.34 478.406 544.168C479.262 542.996 479.689 541.256 479.689 538.947V538.42C479.689 535.971 479.279 534.09 478.459 532.777C477.65 531.465 476.174 530.809 474.029 530.809C472.236 530.809 470.895 531.5 470.004 532.883C469.113 534.254 468.668 536.129 468.668 538.508C468.668 540.875 469.107 542.703 469.986 543.992C470.877 545.281 472.225 545.926 474.029 545.926ZM112.869 597L104.238 574.254H104.098C104.145 574.734 104.186 575.32 104.221 576.012C104.256 576.703 104.285 577.459 104.309 578.279C104.332 579.088 104.344 579.914 104.344 580.758V597H101.566V571.301H105.996L114.135 592.676H114.258L122.52 571.301H126.914V597H123.961V580.547C123.961 579.785 123.973 579.023 123.996 578.262C124.02 577.488 124.049 576.762 124.084 576.082C124.119 575.391 124.154 574.793 124.189 574.289H124.049L115.312 597H112.869ZM149.414 577.734V597H147.023L146.602 594.293H146.443C146.045 594.961 145.529 595.523 144.896 595.98C144.264 596.438 143.549 596.777 142.752 597C141.967 597.234 141.129 597.352 140.238 597.352C138.715 597.352 137.438 597.105 136.406 596.613C135.375 596.121 134.596 595.359 134.068 594.328C133.553 593.297 133.295 591.973 133.295 590.355V577.734H136.248V590.145C136.248 591.75 136.611 592.951 137.338 593.748C138.064 594.533 139.172 594.926 140.66 594.926C142.09 594.926 143.227 594.656 144.07 594.117C144.926 593.578 145.541 592.787 145.916 591.744C146.291 590.689 146.479 589.4 146.479 587.877V577.734H149.414ZM158.52 597H155.584V569.648H158.52V597ZM170.912 594.961C171.393 594.961 171.885 594.92 172.389 594.838C172.893 594.756 173.303 594.656 173.619 594.539V596.807C173.279 596.959 172.805 597.088 172.195 597.193C171.598 597.299 171.012 597.352 170.438 597.352C169.418 597.352 168.492 597.176 167.66 596.824C166.828 596.461 166.16 595.852 165.656 594.996C165.164 594.141 164.918 592.957 164.918 591.445V580.02H162.176V578.596L164.936 577.453L166.096 573.27H167.854V577.734H173.496V580.02H167.854V591.357C167.854 592.564 168.129 593.467 168.68 594.064C169.242 594.662 169.986 594.961 170.912 594.961ZM180.439 577.734V597H177.521V577.734H180.439ZM179.016 570.527C179.496 570.527 179.906 570.686 180.246 571.002C180.598 571.307 180.773 571.787 180.773 572.443C180.773 573.088 180.598 573.568 180.246 573.885C179.906 574.201 179.496 574.359 179.016 574.359C178.512 574.359 178.09 574.201 177.75 573.885C177.422 573.568 177.258 573.088 177.258 572.443C177.258 571.787 177.422 571.307 177.75 571.002C178.09 570.686 178.512 570.527 179.016 570.527ZM189.545 577.734V597H186.627V577.734H189.545ZM188.121 570.527C188.602 570.527 189.012 570.686 189.352 571.002C189.703 571.307 189.879 571.787 189.879 572.443C189.879 573.088 189.703 573.568 189.352 573.885C189.012 574.201 188.602 574.359 188.121 574.359C187.617 574.359 187.195 574.201 186.855 573.885C186.527 573.568 186.363 573.088 186.363 572.443C186.363 571.787 186.527 571.307 186.855 571.002C187.195 570.686 187.617 570.527 188.121 570.527ZM204.855 577.383C207.141 577.383 208.869 577.945 210.041 579.07C211.213 580.184 211.799 581.977 211.799 584.449V597H208.916V584.643C208.916 583.037 208.547 581.836 207.809 581.039C207.082 580.242 205.963 579.844 204.451 579.844C202.318 579.844 200.818 580.447 199.951 581.654C199.084 582.861 198.65 584.613 198.65 586.91V597H195.732V577.734H198.088L198.527 580.512H198.686C199.096 579.832 199.617 579.264 200.25 578.807C200.883 578.338 201.592 577.986 202.377 577.752C203.162 577.506 203.988 577.383 204.855 577.383ZM230.273 591.727C230.273 592.957 229.963 593.994 229.342 594.838C228.732 595.67 227.854 596.297 226.705 596.719C225.568 597.141 224.209 597.352 222.627 597.352C221.279 597.352 220.113 597.246 219.129 597.035C218.145 596.824 217.283 596.525 216.545 596.139V593.449C217.33 593.836 218.268 594.188 219.357 594.504C220.447 594.82 221.561 594.979 222.697 594.979C224.361 594.979 225.568 594.709 226.318 594.17C227.068 593.631 227.443 592.898 227.443 591.973C227.443 591.445 227.291 590.982 226.986 590.584C226.693 590.174 226.195 589.781 225.492 589.406C224.789 589.02 223.816 588.598 222.574 588.141C221.344 587.672 220.277 587.209 219.375 586.752C218.484 586.283 217.793 585.715 217.301 585.047C216.82 584.379 216.58 583.512 216.58 582.445C216.58 580.816 217.236 579.568 218.549 578.701C219.873 577.822 221.607 577.383 223.752 577.383C224.912 577.383 225.996 577.5 227.004 577.734C228.023 577.957 228.973 578.262 229.852 578.648L228.867 580.986C228.07 580.646 227.221 580.359 226.318 580.125C225.416 579.891 224.496 579.773 223.559 579.773C222.211 579.773 221.174 579.996 220.447 580.441C219.732 580.887 219.375 581.496 219.375 582.27C219.375 582.867 219.539 583.359 219.867 583.746C220.207 584.133 220.746 584.496 221.484 584.836C222.223 585.176 223.195 585.574 224.402 586.031C225.609 586.477 226.652 586.939 227.531 587.42C228.41 587.889 229.084 588.463 229.553 589.143C230.033 589.811 230.273 590.672 230.273 591.727ZM241.189 594.961C241.67 594.961 242.162 594.92 242.666 594.838C243.17 594.756 243.58 594.656 243.896 594.539V596.807C243.557 596.959 243.082 597.088 242.473 597.193C241.875 597.299 241.289 597.352 240.715 597.352C239.695 597.352 238.77 597.176 237.938 596.824C237.105 596.461 236.438 595.852 235.934 594.996C235.441 594.141 235.195 592.957 235.195 591.445V580.02H232.453V578.596L235.213 577.453L236.373 573.27H238.131V577.734H243.773V580.02H238.131V591.357C238.131 592.564 238.406 593.467 238.957 594.064C239.52 594.662 240.264 594.961 241.189 594.961ZM250.717 577.734V597H247.799V577.734H250.717ZM249.293 570.527C249.773 570.527 250.184 570.686 250.523 571.002C250.875 571.307 251.051 571.787 251.051 572.443C251.051 573.088 250.875 573.568 250.523 573.885C250.184 574.201 249.773 574.359 249.293 574.359C248.789 574.359 248.367 574.201 248.027 573.885C247.699 573.568 247.535 573.088 247.535 572.443C247.535 571.787 247.699 571.307 248.027 571.002C248.367 570.686 248.789 570.527 249.293 570.527ZM263.127 594.961C263.607 594.961 264.1 594.92 264.604 594.838C265.107 594.756 265.518 594.656 265.834 594.539V596.807C265.494 596.959 265.02 597.088 264.41 597.193C263.812 597.299 263.227 597.352 262.652 597.352C261.633 597.352 260.707 597.176 259.875 596.824C259.043 596.461 258.375 595.852 257.871 594.996C257.379 594.141 257.133 592.957 257.133 591.445V580.02H254.391V578.596L257.15 577.453L258.311 573.27H260.068V577.734H265.711V580.02H260.068V591.357C260.068 592.564 260.344 593.467 260.895 594.064C261.457 594.662 262.201 594.961 263.127 594.961ZM285.645 577.734V597H283.254L282.832 594.293H282.674C282.275 594.961 281.76 595.523 281.127 595.98C280.494 596.438 279.779 596.777 278.982 597C278.197 597.234 277.359 597.352 276.469 597.352C274.945 597.352 273.668 597.105 272.637 596.613C271.605 596.121 270.826 595.359 270.299 594.328C269.783 593.297 269.525 591.973 269.525 590.355V577.734H272.479V590.145C272.479 591.75 272.842 592.951 273.568 593.748C274.295 594.533 275.402 594.926 276.891 594.926C278.32 594.926 279.457 594.656 280.301 594.117C281.156 593.578 281.771 592.787 282.146 591.744C282.521 590.689 282.709 589.4 282.709 587.877V577.734H285.645ZM299.531 597.352C297.797 597.352 296.268 596.994 294.943 596.279C293.619 595.564 292.588 594.475 291.85 593.01C291.111 591.545 290.742 589.699 290.742 587.473C290.742 585.141 291.129 583.236 291.902 581.76C292.688 580.271 293.766 579.17 295.137 578.455C296.508 577.74 298.066 577.383 299.812 577.383C300.773 577.383 301.699 577.482 302.59 577.682C303.492 577.869 304.23 578.109 304.805 578.402L303.926 580.846C303.34 580.611 302.66 580.4 301.887 580.213C301.125 580.025 300.41 579.932 299.742 579.932C298.406 579.932 297.293 580.219 296.402 580.793C295.523 581.367 294.861 582.211 294.416 583.324C293.982 584.438 293.766 585.809 293.766 587.438C293.766 588.996 293.977 590.326 294.398 591.428C294.832 592.529 295.471 593.373 296.314 593.959C297.17 594.533 298.236 594.82 299.514 594.82C300.533 594.82 301.453 594.715 302.273 594.504C303.094 594.281 303.838 594.023 304.506 593.73V596.332C303.861 596.66 303.141 596.912 302.344 597.088C301.559 597.264 300.621 597.352 299.531 597.352ZM311.994 577.734V597H309.076V577.734H311.994ZM310.57 570.527C311.051 570.527 311.461 570.686 311.801 571.002C312.152 571.307 312.328 571.787 312.328 572.443C312.328 573.088 312.152 573.568 311.801 573.885C311.461 574.201 311.051 574.359 310.57 574.359C310.066 574.359 309.645 574.201 309.305 573.885C308.977 573.568 308.812 573.088 308.812 572.443C308.812 571.787 308.977 571.307 309.305 571.002C309.645 570.686 310.066 570.527 310.57 570.527ZM334.793 587.332C334.793 588.914 334.588 590.326 334.178 591.568C333.768 592.811 333.176 593.859 332.402 594.715C331.629 595.57 330.691 596.227 329.59 596.684C328.5 597.129 327.264 597.352 325.881 597.352C324.592 597.352 323.408 597.129 322.33 596.684C321.264 596.227 320.338 595.57 319.553 594.715C318.779 593.859 318.176 592.811 317.742 591.568C317.32 590.326 317.109 588.914 317.109 587.332C317.109 585.223 317.467 583.43 318.182 581.953C318.896 580.465 319.916 579.334 321.24 578.561C322.576 577.775 324.164 577.383 326.004 577.383C327.762 577.383 329.297 577.775 330.609 578.561C331.934 579.346 332.959 580.482 333.686 581.971C334.424 583.447 334.793 585.234 334.793 587.332ZM320.133 587.332C320.133 588.879 320.338 590.221 320.748 591.357C321.158 592.494 321.791 593.373 322.646 593.994C323.502 594.615 324.604 594.926 325.951 594.926C327.287 594.926 328.383 594.615 329.238 593.994C330.105 593.373 330.744 592.494 331.154 591.357C331.564 590.221 331.77 588.879 331.77 587.332C331.77 585.797 331.564 584.473 331.154 583.359C330.744 582.234 330.111 581.367 329.256 580.758C328.4 580.148 327.293 579.844 325.934 579.844C323.93 579.844 322.459 580.506 321.521 581.83C320.596 583.154 320.133 584.988 320.133 587.332ZM348.961 577.383C351.246 577.383 352.975 577.945 354.146 579.07C355.318 580.184 355.904 581.977 355.904 584.449V597H353.021V584.643C353.021 583.037 352.652 581.836 351.914 581.039C351.188 580.242 350.068 579.844 348.557 579.844C346.424 579.844 344.924 580.447 344.057 581.654C343.189 582.861 342.756 584.613 342.756 586.91V597H339.838V577.734H342.193L342.633 580.512H342.791C343.201 579.832 343.723 579.264 344.355 578.807C344.988 578.338 345.697 577.986 346.482 577.752C347.268 577.506 348.094 577.383 348.961 577.383ZM369.123 577.418C371.42 577.418 373.125 577.934 374.238 578.965C375.352 579.996 375.908 581.643 375.908 583.904V597H373.781L373.219 594.152H373.078C372.539 594.855 371.977 595.447 371.391 595.928C370.805 596.396 370.125 596.754 369.352 597C368.59 597.234 367.652 597.352 366.539 597.352C365.367 597.352 364.324 597.146 363.41 596.736C362.508 596.326 361.793 595.705 361.266 594.873C360.75 594.041 360.492 592.986 360.492 591.709C360.492 589.787 361.254 588.311 362.777 587.279C364.301 586.248 366.621 585.686 369.738 585.592L373.061 585.451V584.273C373.061 582.609 372.703 581.443 371.988 580.775C371.273 580.107 370.266 579.773 368.965 579.773C367.957 579.773 366.996 579.92 366.082 580.213C365.168 580.506 364.301 580.852 363.48 581.25L362.584 579.035C363.451 578.59 364.447 578.209 365.572 577.893C366.697 577.576 367.881 577.418 369.123 577.418ZM373.025 587.508L370.09 587.631C367.688 587.725 365.994 588.117 365.01 588.809C364.025 589.5 363.533 590.479 363.533 591.744C363.533 592.846 363.867 593.66 364.535 594.188C365.203 594.715 366.088 594.979 367.189 594.979C368.9 594.979 370.301 594.504 371.391 593.555C372.48 592.605 373.025 591.182 373.025 589.283V587.508ZM384.855 597H381.92V569.648H384.855V597Z" fill="white"/>
<path d="M382.306 262.482C368.297 262.482 356.5 270.593 349.864 281.652L302.677 254.372C310.787 244.05 315.948 230.778 315.948 216.769C315.948 206.447 312.999 196.125 308.575 188.014L347.653 148.937C353.551 153.361 361.661 156.31 369.772 156.31C390.417 156.31 406.637 140.089 406.637 119.444C406.637 98.7996 390.417 82.5788 369.772 82.5788C349.127 82.5788 332.906 98.7996 332.906 119.444C332.906 126.08 335.118 131.979 338.067 137.877L299.727 176.217C288.668 164.42 273.184 156.31 255.489 156.31C246.641 156.31 237.793 158.522 230.42 162.208L179.546 100.274C194.292 90.6892 203.14 73.731 203.14 55.2983C203.14 25.0685 178.808 0 147.841 0C116.874 0 94.0178 24.3312 94.0178 54.561C94.0178 84.7907 118.349 109.859 149.316 109.859C155.215 109.859 161.113 109.122 167.011 106.91L218.623 169.581C204.614 180.641 195.767 197.599 195.767 216.769C195.767 224.88 197.241 232.99 200.19 239.626L153.74 269.118C145.63 255.109 130.146 245.524 113.188 245.524C87.382 245.524 66 266.906 66 292.712C66 318.518 87.382 339.9 113.188 339.9C143.418 339.9 166.274 311.882 159.638 282.39L207.564 251.423C218.623 266.169 236.319 276.491 256.226 276.491C269.498 276.491 282.032 272.067 292.354 264.694L346.178 295.661C343.966 318.518 362.399 335.476 382.306 335.476C402.951 335.476 419.172 319.255 419.172 298.611C419.172 277.966 402.951 262.482 382.306 262.482ZM371.246 96.5876C383.781 96.5876 393.366 106.91 393.366 118.707C393.366 131.241 383.043 140.826 371.246 140.826C359.449 140.826 349.127 130.504 349.127 118.707C349.127 106.91 358.712 96.5876 371.246 96.5876ZM148.579 95.113C126.459 95.113 108.027 77.4176 108.027 54.561C108.027 31.7043 125.722 14.0089 148.579 14.0089C171.435 14.0089 189.131 31.7043 189.131 54.561C189.131 77.4176 170.698 95.113 148.579 95.113ZM112.451 325.891C94.7551 325.891 80.0089 311.145 80.0089 293.449C80.0089 275.754 94.7551 261.008 112.451 261.008C130.146 261.008 144.892 275.754 144.892 293.449C144.892 311.145 130.883 325.891 112.451 325.891ZM256.226 262.482C231.157 262.482 210.513 241.838 210.513 216.769C210.513 191.701 231.157 171.056 256.226 171.056C281.295 171.056 301.939 191.701 301.939 216.769C301.939 241.838 281.295 262.482 256.226 262.482ZM382.306 321.467C370.509 321.467 360.187 311.882 360.187 299.348C360.187 287.551 369.772 277.229 382.306 277.229C394.84 277.229 404.425 286.814 404.425 299.348C404.425 311.882 394.84 321.467 382.306 321.467Z" fill="white"/>
</svg>
