<svg width="136" height="184" viewBox="0 0 136 184" fill="none" xmlns="http://www.w3.org/2000/svg">
<path d="M48.3338 173.757C48.3338 175.841 47.8288 177.652 46.8189 179.191C45.809 180.73 44.3342 181.917 42.3944 182.75C40.4708 183.584 38.1303 184.001 35.373 184.001C34.1547 184.001 32.9604 183.92 31.7902 183.76C30.6359 183.6 29.5218 183.367 28.4478 183.063C27.3897 182.742 26.3798 182.349 25.418 181.884V174.959C27.0852 175.697 28.8165 176.362 30.6119 176.955C32.4073 177.548 34.1867 177.845 35.9501 177.845C37.1684 177.845 38.1463 177.684 38.8837 177.364C39.6372 177.043 40.1822 176.602 40.5189 176.041C40.8555 175.48 41.0238 174.839 41.0238 174.118C41.0238 173.236 40.7273 172.482 40.1341 171.857C39.541 171.232 38.7234 170.647 37.6814 170.102C36.6555 169.557 35.4932 168.972 34.1948 168.347C33.3772 167.962 32.4875 167.497 31.5257 166.952C30.5638 166.391 29.6501 165.71 28.7844 164.908C27.9188 164.106 27.2054 163.137 26.6443 161.998C26.0993 160.844 25.8268 159.466 25.8268 157.863C25.8268 155.762 26.3077 153.967 27.2695 152.476C28.2314 150.985 29.602 149.847 31.3814 149.062C33.1768 148.26 35.2929 147.859 37.7295 147.859C39.557 147.859 41.2963 148.076 42.9475 148.509C44.6147 148.925 46.354 149.535 48.1655 150.336L45.7609 156.131C44.1418 155.474 42.691 154.969 41.4086 154.616C40.1261 154.248 38.8196 154.063 37.4891 154.063C36.5593 154.063 35.7658 154.216 35.1085 154.52C34.4512 154.809 33.9543 155.225 33.6177 155.771C33.281 156.3 33.1127 156.917 33.1127 157.622C33.1127 158.456 33.3531 159.161 33.8341 159.738C34.331 160.299 35.0684 160.844 36.0463 161.373C37.0402 161.902 38.2746 162.519 39.7494 163.225C41.5448 164.074 43.0757 164.964 44.3422 165.894C45.6246 166.808 46.6105 167.89 47.2998 169.14C47.9891 170.374 48.3338 171.913 48.3338 173.757Z" fill="#FAFAFC"/>
<path d="M54.706 183.52V148.364H62.1602V183.52H54.706Z" fill="#FAFAFC"/>
<path d="M85.8936 183.52L77.4295 155.939H77.213C77.2451 156.596 77.2932 157.59 77.3573 158.921C77.4375 160.235 77.5096 161.638 77.5737 163.129C77.6379 164.619 77.6699 165.966 77.6699 167.168V183.52H71.0092V148.364H81.1566L89.4765 175.248H89.6208L98.4457 148.364H108.593V183.52H101.644V166.88C101.644 165.774 101.66 164.499 101.692 163.056C101.74 161.614 101.796 160.243 101.86 158.945C101.924 157.63 101.972 156.644 102.004 155.987H101.788L92.7227 183.52H85.8936Z" fill="#FAFAFC"/>
<path d="M121.694 100.986C116.305 100.986 111.766 104.107 109.213 108.362L91.058 97.8661C94.1784 93.8947 96.164 88.7886 96.164 83.3989C96.164 79.4275 95.0294 75.4561 93.3273 72.3358L108.362 57.3013C110.631 59.0033 113.752 60.138 116.872 60.138C124.815 60.138 131.055 53.8972 131.055 45.9545C131.055 38.0117 124.815 31.771 116.872 31.771C108.929 31.771 102.688 38.0117 102.688 45.9545C102.688 48.5075 103.539 50.7769 104.674 53.0462L89.9233 67.7971C85.6682 63.2583 79.7112 60.138 72.9031 60.138C69.4991 60.138 66.095 60.989 63.2583 62.4073L43.6851 38.5791C49.3585 34.8914 52.7626 28.367 52.7626 21.2752C52.7626 9.64477 43.4015 0 31.4873 0C19.5732 0 10.7794 9.3611 10.7794 20.9916C10.7794 32.622 20.1405 42.2668 32.0547 42.2668C34.324 42.2668 36.5934 41.9831 38.8627 41.1321L58.7196 65.244C53.3299 69.4991 49.9259 76.0235 49.9259 83.3989C49.9259 86.5193 50.4932 89.6396 51.6279 92.1927L33.7567 103.539C30.6363 98.1497 24.6793 94.462 18.1549 94.462C8.22642 94.462 0 102.688 0 112.617C0 122.545 8.22642 130.772 18.1549 130.772C29.7853 130.772 38.5791 119.992 36.0261 108.645L54.4646 96.7314C58.7196 102.405 65.5277 106.376 73.1868 106.376C78.2928 106.376 83.1152 104.674 87.0866 101.837L107.794 113.752C106.943 122.545 114.035 129.07 121.694 129.07C129.637 129.07 135.878 122.829 135.878 114.886C135.878 106.943 129.637 100.986 121.694 100.986ZM117.439 37.1607C122.262 37.1607 125.949 41.1321 125.949 45.6708C125.949 50.4932 121.978 54.1809 117.439 54.1809C112.901 54.1809 108.929 50.2095 108.929 45.6708C108.929 41.1321 112.617 37.1607 117.439 37.1607ZM31.771 36.5934C23.2609 36.5934 16.1692 29.7853 16.1692 20.9916C16.1692 12.1978 22.9772 5.38972 31.771 5.38972C40.5648 5.38972 47.3728 12.1978 47.3728 20.9916C47.3728 29.7853 40.2811 36.5934 31.771 36.5934ZM17.8712 125.382C11.0631 125.382 5.38972 119.709 5.38972 112.901C5.38972 106.092 11.0631 100.419 17.8712 100.419C24.6793 100.419 30.3527 106.092 30.3527 112.901C30.3527 119.709 24.9629 125.382 17.8712 125.382ZM73.1868 100.986C63.542 100.986 55.5993 93.0437 55.5993 83.3989C55.5993 73.7541 63.542 65.8114 73.1868 65.8114C82.8316 65.8114 90.7743 73.7541 90.7743 83.3989C90.7743 93.0437 82.8316 100.986 73.1868 100.986ZM121.694 123.68C117.156 123.68 113.184 119.992 113.184 115.17C113.184 110.631 116.872 106.66 121.694 106.66C126.517 106.66 130.204 110.348 130.204 115.17C130.204 119.992 126.517 123.68 121.694 123.68Z" fill="white"/>
</svg>
