<svg width="179" height="179" viewBox="0 0 179 179" fill="none" xmlns="http://www.w3.org/2000/svg">
<circle cx="89.5" cy="89.5" r="89.5" fill="#DFDFDF"/>
<path d="M125.561 58.6312H106.143V54.3477C106.084 53.587 105.878 52.8455 105.536 52.1657C105.193 51.4859 104.722 50.8812 104.149 50.3862C103.576 49.8911 102.912 49.5156 102.196 49.281C101.479 49.0463 100.724 48.9573 99.9733 49.019H78.0267C76.5275 48.9227 75.051 49.4275 73.9158 50.4244C72.7806 51.4213 72.0776 52.8304 71.9585 54.3477V58.6312H52.419C51.9678 58.6229 51.5196 58.7068 51.1011 58.8779C50.6827 59.049 50.3025 59.3038 49.9835 59.6272C49.6644 59.9505 49.4129 60.3356 49.244 60.7596C49.0751 61.1836 48.9923 61.6378 49.0006 62.0949C48.9924 62.553 49.0751 63.0081 49.2437 63.4332C49.4124 63.8583 49.6636 64.2448 49.9824 64.5697C50.3011 64.8947 50.6811 65.1514 51.0996 65.3248C51.5182 65.4982 51.9668 65.5847 52.419 65.5791H56.6667L60.8942 119.543C60.9262 122.593 62.1443 125.507 64.2841 127.652C66.4239 129.797 69.3125 131 72.3226 131H105.637C108.645 130.995 111.531 129.79 113.67 127.646C115.808 125.502 117.028 122.591 117.065 119.543L121.333 65.7021H125.561C126.015 65.7104 126.465 65.626 126.886 65.4539C127.307 65.2817 127.69 65.0254 128.011 64.7002C128.332 64.375 128.585 63.9875 128.754 63.5611C128.924 63.1346 129.008 62.6778 128.999 62.2179C129.007 61.7533 128.925 61.2916 128.756 60.8594C128.587 60.4273 128.336 60.0332 128.016 59.6999C127.697 59.3666 127.315 59.1005 126.894 58.9171C126.472 58.7337 126.019 58.6366 125.561 58.6312ZM78.7144 55.9669H99.2856V58.6312H78.7144V55.9669ZM80.0899 112.349H79.9685C79.087 112.335 78.2438 111.982 77.6092 111.362C76.9747 110.742 76.5961 109.901 76.5501 109.009L75.296 80.7456C75.2655 80.2856 75.3287 79.8242 75.4817 79.39C75.6347 78.9558 75.8742 78.5582 76.1853 78.2218C76.4965 77.8854 76.8726 77.6174 77.2903 77.4346C77.7079 77.2517 78.1583 77.1579 78.6133 77.1589H78.7347C79.6195 77.1736 80.4655 77.5294 81.1006 78.1538C81.7357 78.7783 82.112 79.6245 82.1531 80.5202L83.3869 108.763C83.3989 109.676 83.0627 110.558 82.4485 111.226C81.8344 111.894 80.9895 112.297 80.0899 112.349ZM101.45 109.009C101.404 109.901 101.025 110.742 100.391 111.362C99.7562 111.982 98.913 112.335 98.0315 112.349H97.9101C97.0069 112.302 96.157 111.902 95.5385 111.233C94.9201 110.564 94.5812 109.679 94.5928 108.763L95.8469 80.5202C95.893 79.6227 96.2736 78.7763 96.912 78.1524C97.5503 77.5284 98.3987 77.1733 99.2856 77.1589H99.4069C100.307 77.2116 101.151 77.614 101.766 78.2821C102.38 78.9502 102.716 79.8326 102.704 80.7456L101.45 109.009Z" fill="#273B5B"/>
</svg>
