<svg width="179" height="179" viewBox="0 0 179 179" fill="none" xmlns="http://www.w3.org/2000/svg">
<circle cx="89.5" cy="89.5" r="89.5" fill="#DFDFDF"/>
<path d="M97.1875 111.688H81.9375L78.75 50.625H100.375L97.1875 111.688ZM78.5 133.062C78.5 129.146 79.5625 126.396 81.6875 124.812C83.8542 123.229 86.4583 122.438 89.5 122.438C92.4583 122.438 95 123.229 97.125 124.812C99.2917 126.396 100.375 129.146 100.375 133.062C100.375 136.812 99.2917 139.521 97.125 141.188C95 142.854 92.4583 143.688 89.5 143.688C86.4583 143.688 83.8542 142.854 81.6875 141.188C79.5625 139.521 78.5 136.812 78.5 133.062Z" fill="#273B5B"/>
</svg>
